<?xml version="1.0" encoding="utf-8"?>
<!-- Generator: Adobe Illustrator 24.3.0, SVG Export Plug-In . SVG Version: 6.00 Build 0)  -->
<svg version="1.1" id="Layer_1" xmlns="http://www.w3.org/2000/svg" xmlns:xlink="http://www.w3.org/1999/xlink" x="0px" y="0px"
	 viewBox="0 0 166.92 121.11" style="enable-background:new 0 0 166.92 121.11;" xml:space="preserve">
<style type="text/css">
	.st0{fill:#B7A276;}
</style>
<g>
	<g>
		<path class="st0" d="M83.47,95.6c3.48,0,6.27-2.72,6.28-6.1c0.01-3.37-2.78-6.14-6.23-6.17c-3.48-0.03-6.35,2.77-6.33,6.18
			C77.2,92.9,80,95.6,83.47,95.6 M62.21,76.8c-0.03,0-0.05,0-0.08,0c0-0.91,0.04-1.82-0.01-2.73c-0.21-4.46-3.72-7.92-8.31-8.22
			c-4.25-0.27-8.26,2.74-8.94,6.99c-0.33,2.1-0.21,4.28-0.19,6.43c0.05,4.43,3.59,8.04,8.13,8.37c4.42,0.33,8.45-2.78,9.16-7.14
			C62.17,79.28,62.14,78.03,62.21,76.8 M122.32,76.81c-0.08,0-0.16-0.01-0.24-0.01c0-1.16,0.1-2.34-0.02-3.49
			c-0.47-4.33-4.44-7.64-8.87-7.48c-4.61,0.17-8.3,3.73-8.44,8.17c-0.06,1.78-0.05,3.57,0,5.36c0.11,4.33,3.4,7.75,7.88,8.26
			c4.12,0.47,8.2-2.29,9.21-6.37C122.2,79.82,122.17,78.29,122.32,76.81 M27.85,116.57c-1.39-0.56-1.84-1.58-1.81-3.03
			c0.23-10.49,7.24-20.19,17.49-24.09c0.38-0.14,0.75-0.29,1.23-0.47c-0.32-0.33-0.57-0.58-0.82-0.84c-2.45-2.52-3.79-5.5-3.75-8.98
			c0.04-2.65-0.1-5.37,0.47-7.93c1.36-6.12,7.58-10.36,13.72-9.72c6.88,0.71,11.98,5.85,12.19,12.4c0.08,2.29,0.04,4.6-0.14,6.88
			c-0.24,2.86-1.59,5.28-3.61,7.35c-0.23,0.24-0.46,0.47-0.7,0.71c-0.02,0.02-0.01,0.06-0.02,0.16c0.32,0.13,0.65,0.27,0.99,0.4
			c4.31,1.61,7.97,4.12,10.98,7.52c0.69,0.77,0.69,0.78,1.8,0.1c-2.61-2.77-3.75-5.99-2.96-9.72c0.53-2.53,1.88-4.59,3.98-6.15
			c4.4-3.27,10.44-2.82,14.28,1.03c3.44,3.45,4.66,9.74-0.17,14.86c0.62,0.6,1.08,0.76,1.77-0.04c2.97-3.44,6.65-5.94,10.94-7.57
			c0.34-0.13,0.67-0.27,1.37-0.56c-0.52-0.35-0.9-0.53-1.17-0.81c-2.33-2.4-3.67-5.24-3.67-8.56c0-2.69-0.18-5.45,0.37-8.06
			c1.29-6.13,7.27-10.39,13.45-9.97c6.75,0.45,11.95,5.32,12.46,11.88c0.2,2.53,0.15,5.11-0.09,7.65c-0.25,2.76-1.6,5.13-3.58,7.13
			c-0.23,0.23-0.46,0.47-0.69,0.71c-0.02,0.02-0.02,0.06-0.04,0.14c0.33,0.14,0.68,0.27,1.02,0.41
			c10.06,4.07,15.93,11.33,17.51,21.87c0.04,0.25,0.13,0.49,0.2,0.73v4.6h-2.69c-1.33-0.55-1.91-1.51-1.82-2.93
			c0.04-0.65-0.07-1.31-0.16-1.96c-1.25-8.49-5.86-14.62-13.95-17.91c-8.1-3.29-15.81-2.09-22.82,3.03
			c-1.29,0.94-2.38,2.14-3.6,3.26c0.56,0.52,0.94,0.87,1.3,1.24c3.36,3.43,5.17,7.51,5.43,12.27c0.08,1.47-0.39,2.48-1.83,3h-0.9
			c-1.3-0.58-1.82-1.57-1.8-2.96c0.01-0.86-0.15-1.75-0.36-2.59c-1.69-6.79-8.3-11.58-15.13-11c-7.73,0.66-13.27,6.09-13.78,13.63
			c-0.09,1.33-0.49,2.29-1.68,2.92h-1.12c-1.31-0.59-1.81-1.57-1.72-2.98c0.32-5.11,2.33-9.43,6.14-12.96
			c0.19-0.17,0.45-0.27,0.71-0.42c-0.55-0.6-0.9-1.02-1.29-1.41c-5.41-5.23-11.89-7.47-19.47-6.57
			c-10.91,1.29-19.58,10.66-19.77,21.4c-0.02,1.41-0.5,2.38-1.82,2.93H27.85z"/>
		<path class="st0" d="M47.09,39.53c0.58,3.35,4.42,6.16,8.2,6.06c3.81-0.1,7.52-2.94,7.9-6.06H47.09z M103.6,39.51
			c0.75,3.59,4.79,6.38,8.6,6.06c3.77-0.32,7.39-3.25,7.47-6.06H103.6z M95.54,58.29c-0.02-2.31-1.84-4.26-4.23-4.29
			c-5.26-0.07-10.53-0.07-15.79,0c-2.37,0.03-4.12,1.9-4.24,4.29H95.54z M55.15,20.51c-2.44,4.95-4.77,9.69-7.14,14.48h14.28
			C59.9,30.15,57.58,25.45,55.15,20.51 M118.86,35.05c-2.41-4.89-4.75-9.62-7.17-14.53c-2.44,4.96-4.78,9.69-7.16,14.53H118.86z
			 M90.61,49.55c3.12,0.07,5.64,1.11,7.55,3.42c1.97,2.37,2.12,5.15,1.87,7.99c-0.1,1.07-1.08,1.74-2.36,1.74
			c-2.58,0.02-5.16,0.01-7.74,0.01c-6.76,0-13.53,0-20.29,0c-2.14,0-2.87-0.75-2.94-2.82c-0.08-2.75,0.41-5.3,2.41-7.4
			c1.89-1.99,4.25-2.89,7.07-2.93V17.71h-17.4c0.2,0.44,0.37,0.83,0.56,1.21c2.66,5.38,5.27,10.78,8,16.13
			c0.73,1.43,0.87,2.81,0.63,4.33c-0.98,6.17-7.05,10.97-13.41,10.57c-6.86-0.43-12.29-5.79-12.35-12.27
			c-0.01-0.7,0.22-1.44,0.53-2.08c2.72-5.59,5.49-11.17,8.24-16.75c0.17-0.35,0.32-0.7,0.55-1.22c-1.22,0-2.25,0.01-3.29,0
			c-1.57-0.02-2.51-0.85-2.51-2.18c0-1.32,0.96-2.18,2.53-2.18c8.86-0.01,17.72,0,26.57,0h1.45c-0.23-2.77,0.27-5.21,2.46-7.03
			c1.33-1.11,2.88-1.7,4.62-1.7c2.3,0,4.19,0.91,5.66,2.65c1.47,1.75,1.65,3.84,1.6,6.08h1.41c8.67,0,17.34,0,26.01,0
			c0.41,0,0.83-0.02,1.23,0.06c1.14,0.21,1.92,1.2,1.85,2.28c-0.08,1.1-0.93,1.97-2.12,2.02c-1.18,0.05-2.37,0.01-3.7,0.01
			c0.21,0.49,0.36,0.85,0.53,1.2c2.7,5.48,5.37,10.98,8.14,16.43c0.72,1.41,0.76,2.77,0.51,4.23c-1.02,6.11-7.14,10.88-13.4,10.44
			c-6.89-0.49-12.25-5.73-12.34-12.15c-0.01-0.73,0.22-1.51,0.54-2.18c2.72-5.6,5.48-11.17,8.23-16.75
			c0.17-0.35,0.33-0.71,0.53-1.16H90.67c-0.02,0.35-0.06,0.69-0.06,1.04c-0.01,1.17,0.04,2.34-0.03,3.5
			c-0.08,1.32-1.11,2.22-2.34,2.16c-1.22-0.06-2.09-0.95-2.1-2.26c-0.03-3.39,0-6.78-0.02-10.18c-0.01-1.56-0.64-2.51-1.89-2.9
			c-1.59-0.51-3.27,0.52-3.46,2.15c-0.04,0.36-0.03,0.73-0.03,1.09c0,12,0,24.01,0,36.01v1.22h5.38c0-1.87,0-3.72,0-5.57
			c0-0.69-0.02-1.39,0.01-2.08c0.06-1.24,0.91-2.09,2.09-2.15c1.17-0.06,2.17,0.73,2.32,1.93c0.1,0.79,0.05,1.6,0.05,2.4
			C90.61,45.85,90.61,47.64,90.61,49.55"/>
	</g>
</g>
</svg>
