<?xml version="1.0" encoding="utf-8"?>
<!-- Generator: Adobe Illustrator 24.3.0, SVG Export Plug-In . SVG Version: 6.00 Build 0)  -->
<svg version="1.1" id="Layer_1" xmlns="http://www.w3.org/2000/svg" xmlns:xlink="http://www.w3.org/1999/xlink" x="0px" y="0px"
	 viewBox="0 0 166.92 121.11" style="enable-background:new 0 0 166.92 121.11;" xml:space="preserve">
<style type="text/css">
	.st0{fill:#323F50;}
</style>
<g>
	<g>
		<path class="st0" d="M20.44,111.14c0,0.06,0.01,0.12,0.02,0.18c0.01,0.06,0.02,0.13,0.03,0.19c0.01,0.06,0.02,0.13,0.04,0.19
			c0.01,0.06,0.03,0.12,0.04,0.17c0.02,0.06,0.03,0.13,0.06,0.19c0.02,0.06,0.04,0.11,0.06,0.17c0.02,0.06,0.05,0.12,0.07,0.18
			c0.03,0.06,0.05,0.12,0.08,0.17c0.03,0.05,0.05,0.11,0.08,0.16c0.03,0.06,0.07,0.11,0.1,0.17c0.03,0.05,0.06,0.1,0.1,0.15
			c0.04,0.05,0.08,0.1,0.12,0.15c0.04,0.05,0.08,0.1,0.12,0.15c0.04,0.05,0.08,0.09,0.12,0.13c0.05,0.05,0.1,0.1,0.15,0.15
			c0.02,0.02,0.04,0.04,0.06,0.06c0.02,0.02,0.05,0.04,0.07,0.06c0.05,0.04,0.1,0.08,0.15,0.12c0.05,0.04,0.09,0.07,0.14,0.11
			c0.05,0.04,0.1,0.07,0.15,0.1c0.05,0.03,0.11,0.07,0.16,0.1c0.05,0.03,0.1,0.06,0.15,0.08c0.06,0.03,0.12,0.06,0.17,0.08
			c0.05,0.02,0.1,0.05,0.16,0.07c0.06,0.02,0.12,0.05,0.18,0.07c0.05,0.02,0.11,0.04,0.16,0.05c0.06,0.02,0.13,0.03,0.19,0.05
			c0.05,0.01,0.11,0.03,0.16,0.04c0.07,0.01,0.15,0.02,0.23,0.03c0.05,0.01,0.09,0.01,0.14,0.02c0.12,0.01,0.25,0.02,0.37,0.02h0h0
			h118.09c0.05,0,0.1-0.01,0.16-0.01c0.05,0,0.1,0.01,0.16,0.01c0.92,0,1.85-0.33,2.58-1c1.24-1.13,1.56-2.88,0.94-4.34V36.81
			c0,0,0-0.01,0-0.01c0-0.01,0-0.03,0-0.04c0-0.17-0.02-0.33-0.04-0.5c-0.01-0.04-0.01-0.07-0.02-0.11
			c-0.03-0.18-0.07-0.35-0.13-0.53c0-0.01,0-0.01,0-0.02c0-0.01-0.01-0.02-0.02-0.04c-0.06-0.17-0.13-0.33-0.21-0.49
			c-0.01-0.02-0.02-0.04-0.03-0.05c-0.08-0.16-0.18-0.31-0.28-0.45c-0.02-0.03-0.05-0.06-0.07-0.09c-0.11-0.14-0.22-0.27-0.34-0.39
			c-0.01-0.01-0.02-0.02-0.03-0.03c-0.12-0.11-0.25-0.22-0.38-0.32c-0.03-0.02-0.05-0.04-0.08-0.06c-0.14-0.1-0.29-0.19-0.45-0.27
			c-0.02-0.01-0.05-0.02-0.07-0.03c-0.15-0.07-0.31-0.14-0.47-0.19c-0.02-0.01-0.03-0.01-0.05-0.02c-0.17-0.05-0.34-0.1-0.52-0.13
			c-0.04-0.01-0.07-0.01-0.11-0.02c-0.18-0.03-0.36-0.04-0.55-0.04h-12.72V10.25c0-2.12-1.72-3.83-3.83-3.83H42.14
			c-2.12,0-3.83,1.72-3.83,3.83v22.72H24.26c-0.19,0-0.37,0.02-0.55,0.04c-0.04,0.01-0.07,0.01-0.11,0.02
			c-0.18,0.03-0.35,0.07-0.52,0.13c-0.02,0.01-0.03,0.01-0.04,0.02c-0.16,0.05-0.32,0.12-0.47,0.19c-0.02,0.01-0.05,0.02-0.07,0.03
			c-0.16,0.08-0.3,0.17-0.45,0.27c-0.03,0.02-0.05,0.04-0.08,0.06c-0.13,0.1-0.26,0.21-0.38,0.32c-0.01,0.01-0.02,0.02-0.03,0.03
			c-0.12,0.12-0.24,0.26-0.34,0.39c-0.02,0.03-0.05,0.06-0.07,0.09c-0.1,0.14-0.2,0.29-0.28,0.45c-0.01,0.02-0.02,0.04-0.03,0.05
			c-0.08,0.16-0.15,0.32-0.21,0.49c0,0.01-0.01,0.02-0.01,0.03c0,0.01,0,0.01,0,0.02c-0.06,0.17-0.1,0.35-0.13,0.53
			c-0.01,0.04-0.01,0.07-0.02,0.11c-0.02,0.17-0.04,0.33-0.04,0.5c0,0.01,0,0.03,0,0.04c0,0,0,0.01,0,0.01v74.04
			c0,0.03,0,0.05,0,0.08C20.43,111,20.44,111.07,20.44,111.14z M32.95,107.02l32-35.02L80.1,83.31c0.66,0.5,1.47,0.76,2.29,0.76
			h1.82c0.83,0,1.63-0.27,2.29-0.76l15.33-11.45l32.13,35.16H32.95z M138.52,44.46v56.17l-30.5-33.39L138.52,44.46z M45.98,14.09
			h75.98v33.17L83.3,76.13L45.98,48.25V14.09z M58.78,67.38l-30.69,33.59V44.46L58.78,67.38z"/>
	</g>
	<path class="st0" d="M58.94,31.9h49.36c2.12,0,3.83-1.72,3.83-3.83s-1.72-3.83-3.83-3.83H58.94c-2.12,0-3.83,1.72-3.83,3.83
		S56.82,31.9,58.94,31.9z"/>
	<path class="st0" d="M112.14,43.72c0-2.12-1.72-3.83-3.83-3.83H58.94c-2.12,0-3.83,1.72-3.83,3.83s1.72,3.83,3.83,3.83h49.36
		C110.42,47.55,112.14,45.83,112.14,43.72z"/>
</g>
</svg>
