<?xml version="1.0" encoding="utf-8"?>
<!-- Generator: Adobe Illustrator 24.3.0, SVG Export Plug-In . SVG Version: 6.00 Build 0)  -->
<svg version="1.1" id="Layer_1" xmlns="http://www.w3.org/2000/svg" xmlns:xlink="http://www.w3.org/1999/xlink" x="0px" y="0px"
	 viewBox="0 0 166.92 121.11" style="enable-background:new 0 0 166.92 121.11;" xml:space="preserve">
<style type="text/css">
	.st0{fill:#B7A276;}
</style>
<path class="st0" d="M80.9,111.78c0.21-0.14,0.82-0.35,1.09-0.77c1.27-1.97,2.48-3.99,3.64-6.03c0.46-0.81,0.12-1.75-0.64-2.25
	c-0.79-0.52-1.86-0.43-2.38,0.39c-1.29,2-2.55,4.03-3.7,6.12C78.26,110.42,79.23,111.79,80.9,111.78 M71.26,104.58
	c0.02,1.49,0.82,2.57,1.92,2.91c1.22,0.37,2.43-0.04,3.15-1.19c1.14-1.81,2.24-3.64,3.32-5.48c0.91-1.55,0.54-3.19-0.85-4
	c-1.33-0.78-2.92-0.3-3.84,1.19c-1.07,1.73-2.12,3.46-3.14,5.21C71.52,103.73,71.36,104.32,71.26,104.58 M58.45,98.34
	c0.67-0.4,1.58-0.65,1.98-1.24c1.38-2.03,2.66-4.14,3.85-6.29c0.68-1.22,0.11-2.73-1.06-3.44c-1.2-0.72-2.76-0.52-3.54,0.66
	c-1.35,2.05-2.66,4.14-3.8,6.32C54.98,96.09,56.37,98.09,58.45,98.34 M66.31,103.1c0.69-0.44,1.61-0.73,2.02-1.35
	c1.65-2.5,3.19-5.07,4.67-7.67c0.73-1.28,0.2-2.8-1.02-3.53c-1.24-0.74-2.81-0.49-3.6,0.75c-1.61,2.53-3.18,5.07-4.63,7.69
	C62.77,100.75,64.15,102.84,66.31,103.1 M37.76,86.11V84.9V69.81c0-2.18,0.02-4.35-0.02-6.53c-0.01-0.3-0.29-0.84-0.46-0.85
	c-1.65-0.06-3.31-0.04-4.95-0.04v23.71H37.76z M129.25,84.25h5.36V60.59h-5.36V84.25z M108.87,34.84h18.69
	c-3.15-4.98-6.21-9.8-9.35-14.77C115.04,25.08,111.99,29.91,108.87,34.84 M39.37,34.85h18.69c-3.15-4.97-6.21-9.8-9.35-14.77
	C45.56,25.07,42.5,29.9,39.37,34.85 M83.48,23.95c4.06-0.02,7.28-3.24,7.28-7.29c0-4.04-3.25-7.32-7.26-7.33
	c-4.07-0.01-7.34,3.28-7.33,7.37C76.17,20.73,79.43,23.96,83.48,23.95 M59.65,38.69H37.8c0,2.03-0.08,3.99,0.03,5.94
	c0.09,1.67,1.59,3.05,3.3,3.07c5.06,0.04,10.13,0.05,15.19,0c1.7-0.02,3.2-1.39,3.3-3.08C59.75,42.67,59.65,40.71,59.65,38.69
	 M107.27,38.66c0,2.03-0.09,3.99,0.03,5.94c0.1,1.69,1.59,3.08,3.29,3.1c5.1,0.05,10.2,0.04,15.29,0c1.53-0.01,3.02-1.24,3.15-2.73
	c0.17-2.07,0.04-4.17,0.04-6.3H107.27z M79.85,55.79c1.28-0.68,2.34-1.39,3.49-1.82c1.18-0.44,2.45-0.62,3.72-0.92V27.02
	c-2.42,0.81-4.8,0.73-7.21,0.03V55.79z M125.41,80.72V64.2h-1.26c-6.28,0-12.57-0.02-18.85,0.02c-1.55,0.01-2.94-0.32-4.31-1.03
	c-3.64-1.88-7.31-3.72-10.99-5.53c-2.65-1.31-5.52-0.92-7.51,1.12c-3.71,3.81-7.38,7.67-10.98,11.59c-0.53,0.58-0.77,1.6-0.77,2.42
	c0,1.06,0.74,1.83,1.77,2.2c1.15,0.4,2.17,0.11,3.05-0.72c2.9-2.7,5.8-5.4,8.71-8.09c1.95-1.81,3.46-1.93,5.64-0.41
	c7.79,5.42,15.59,10.83,23.35,16.29c1.09,0.77,1.93,1.03,3.24,0.44C119.32,81.26,122.34,80.85,125.41,80.72 M41.46,82.81
	c4.96,0.95,9.49,2.78,13.74,5.51c1.3-2.62,2.94-4.71,5.97-4.96c2.99-0.25,5.12,1.17,6.5,3.74c5.05-1.58,7.58-0.05,9.42,5.68
	c0.15,0.01,0.32,0.02,0.5,0.03c3.32,0.26,5.39,2.02,6.1,5.29c0.14,0.65,0.53,0.63,0.98,0.71c2.53,0.43,4.37,2.06,4.68,4.47
	c0.16,1.22-0.18,2.5-0.31,3.97c1.58,1.16,3.37,2.5,5.2,3.8c0.96,0.68,2.04,0.52,2.65-0.32c0.61-0.83,0.42-1.9-0.53-2.62
	c-0.91-0.7-1.86-1.33-2.77-2.02c-1.01-0.76-1.25-1.82-0.63-2.69c0.63-0.88,1.7-1.02,2.74-0.29c1.11,0.77,2.19,1.6,3.3,2.37
	c0.41,0.28,0.84,0.57,1.31,0.71c1.26,0.39,2.58-0.22,3.16-1.37c0.64-1.25,0.33-2.59-0.9-3.51c-2-1.5-4.04-2.94-6.04-4.44
	c-0.96-0.72-1.13-1.77-0.51-2.62c0.61-0.83,1.69-0.98,2.66-0.31c1.14,0.8,2.25,1.64,3.38,2.46c1.38,1.01,2.75,2.05,4.15,3.03
	c1.33,0.93,2.91,0.71,3.83-0.47c0.91-1.17,0.78-2.64-0.38-3.75c-0.41-0.39-0.87-0.72-1.33-1.05c-1.93-1.41-3.89-2.79-5.8-4.23
	c-0.89-0.67-1.01-1.74-0.4-2.56c0.61-0.81,1.64-0.95,2.58-0.35c0.24,0.15,0.46,0.33,0.69,0.5c1.59,1.16,3.16,2.33,4.76,3.46
	c0.99,0.7,2.08,0.77,3.12,0.12c0.96-0.6,1.36-1.55,1.23-2.67c-0.12-1-0.77-1.63-1.56-2.18c-7.39-5.13-14.76-10.28-22.15-15.42
	c-1.17-0.81-2.33-1.62-3.5-2.43c-0.34,0.3-0.61,0.53-0.87,0.77c-2.8,2.6-5.6,5.2-8.4,7.8c-1.72,1.6-3.75,2.21-6.03,1.67
	c-4.94-1.16-6.66-7.06-3.17-10.82c2.53-2.72,5.11-5.39,7.66-8.09c0.21-0.22,0.38-0.46,0.64-0.77c-6.81-0.86-12.8,0.75-18.02,5.01
	c-1.72,1.41-3.59,2.1-5.8,2.08c-3.57-0.03-7.14-0.01-10.71-0.01c-0.38,0-0.75,0.03-1.15,0.05V82.81z M138.32,59.69V85.2
	c-0.69,1.56-1.71,2.73-3.56,2.77c-1.89,0.04-3.78,0.04-5.68,0c-1.67-0.04-2.98-1.12-3.43-2.73c-0.07-0.26-0.17-0.52-0.33-1.03
	c-2.61,0.51-5.17,1.01-7.85,1.53c0.84,2.02,0.96,3.79,0.21,5.56c-0.74,1.76-2.1,2.92-3.84,3.59c1.45,4.25-1.23,8.78-6.44,8.83
	c-0.12,1.72-0.72,3.25-1.99,4.47c-1.27,1.22-2.83,1.72-4.49,1.81c-0.99,4.92-5.3,6.61-9.25,3.74c-1.61-1.17-3.22-2.34-4.91-3.57
	c-1.26,2.34-2.49,4.58-5.25,5.25H79.6c-2.17-0.66-3.79-1.92-4.4-4.25c-1.72,0.3-3.25-0.01-4.67-0.9c-1.45-0.91-2.31-2.27-2.8-3.84
	c-4.43,0.2-5.84-0.65-7.91-4.75c-2.77,0.41-5.17-0.32-6.78-2.76c-1.63-2.47-1.36-4.99,0.16-7.41c-2.67-2.16-9.16-4.8-11.82-4.82
	c-0.44,1.74-1.48,2.96-3.35,3.06c-2.03,0.11-4.07,0.11-6.1,0c-1.93-0.11-3.3-1.62-3.31-3.56c-0.03-7.97-0.03-15.93,0-23.9
	c0.01-1.89,1.36-3.4,3.23-3.51c2.1-0.12,4.21-0.1,6.31,0c1.57,0.07,2.69,1.16,3.11,2.68c0.08,0.3,0.17,0.6,0.27,0.92
	c3.78,0,7.49-0.05,11.2,0.02c1.7,0.03,3.07-0.46,4.42-1.51c4.38-3.4,9.25-5.64,14.89-5.83c1.34-0.04,2.68-0.01,4.06-0.01
	c0.02-0.21,0.04-0.38,0.04-0.55c0-9.68,0.01-19.36-0.01-29.04c0-0.3-0.06-0.69-0.25-0.88c-1.71-1.67-2.75-3.69-3.25-6.01H52.19
	c0.08,0.19,0.11,0.29,0.16,0.38c3.49,5.52,7,11.03,10.47,16.56c0.29,0.45,0.47,1.05,0.49,1.58c0.05,2.29,0.04,4.57,0.02,6.86
	c-0.04,4.26-3.09,7.37-7.36,7.41c-4.82,0.05-9.64,0.04-14.46,0c-4.29-0.04-7.31-3.08-7.39-7.38c-0.04-2.29-0.03-4.57,0.01-6.86
	c0.01-0.48,0.1-1.02,0.35-1.42c3.36-5.35,6.76-10.67,10.15-16c0.22-0.35,0.42-0.71,0.72-1.22h-1.31c-4.25,0-8.5,0-12.75,0
	c-1.78,0-2.7-0.65-2.66-1.9c0.04-1.21,0.86-1.76,2.66-1.76c13.39,0,26.78-0.01,40.18,0.02c0.89,0,1.26-0.23,1.5-1.14
	c1.3-4.8,5.59-8.04,10.51-8.04c4.93,0,9.22,3.23,10.51,8.03c0.27,0.98,0.7,1.15,1.61,1.15c13.36-0.03,26.71-0.01,40.07-0.04
	c1.11,0,2.02,0.21,2.67,1.14v1.29c-0.6,0.99-1.48,1.28-2.62,1.27c-4.28-0.04-8.57-0.02-12.85-0.02h-1.25
	c0.15,0.3,0.2,0.42,0.27,0.54c3.48,5.48,6.96,10.97,10.42,16.46c0.27,0.43,0.49,0.98,0.5,1.47c0.05,2.46,0.08,4.93-0.01,7.39
	c-0.13,3.95-3.14,6.95-7.08,7c-5,0.07-10,0.07-14.99,0c-4.02-0.06-7.06-3.2-7.11-7.21c-0.03-2.36-0.03-4.71,0.01-7.07
	c0.01-0.47,0.13-1.01,0.38-1.4c3.42-5.43,6.87-10.85,10.31-16.27c0.16-0.26,0.29-0.53,0.46-0.86H94.28
	c-0.49,2.32-1.53,4.31-3.18,5.98c-0.21,0.22-0.32,0.63-0.32,0.95c-0.02,9.25-0.02,18.5,0.01,27.74c0,0.35,0.31,0.87,0.62,1.03
	c3.8,1.96,7.63,3.88,11.47,5.76c0.65,0.32,1.42,0.51,2.14,0.51c6.46,0.04,12.92,0.02,19.39,0.02h1c0.79-2.91,1.76-3.65,4.66-3.65
	c1.22,0,2.43,0.08,3.64-0.02C135.95,56.71,137.48,57.61,138.32,59.69"/>
</svg>
