<?xml version="1.0" encoding="utf-8"?>
<!-- Generator: Adobe Illustrator 24.3.0, SVG Export Plug-In . SVG Version: 6.00 Build 0)  -->
<svg version="1.1" id="Layer_1" xmlns="http://www.w3.org/2000/svg" xmlns:xlink="http://www.w3.org/1999/xlink" x="0px" y="0px"
	 viewBox="0 0 62.36 27.66" style="enable-background:new 0 0 62.36 27.66;" xml:space="preserve">
<style type="text/css">
	.st0{fill:#FFFFFF;}
	.st1{fill:#B8A476;}
</style>
<g>
	<g>
		<path class="st0" d="M19.51,20.23c0.19-0.4,0.21-0.56,0.28-0.58c1.83-0.56,1.95-2.07,1.96-3.6c0.01-3.4,0.02-6.8-0.03-10.2
			c-0.01-0.81,0.24-1.24,1.04-1.43c0.79-0.18,1.55-0.46,2.46-0.74c0,5.01,0,9.89,0,14.81c2.08,0.51,4.06,0.5,5.98-0.15
			c1.61-0.54,2.67-1.77,3.23-3.34c0.98-2.77,0.97-5.56-0.15-8.31c-0.6-1.47-1.5-2.65-3.09-3.16c-0.09-0.03-0.17-0.12-0.24-0.2
			c-0.02-0.02-0.01-0.07-0.01-0.1c3.44-0.12,6.66,2.06,7.56,5.74c0.71,2.93,0.14,5.64-1.78,8.03c-1.46,1.82-3.48,2.67-5.66,2.84
			C27.28,20.12,23.49,20.11,19.51,20.23z"/>
		<path class="st1" d="M18.61,4.5c1.41-0.57,2.77-1.33,4.24-1.68c2.87-0.68,5.78-1.47,8.69-1.58c4.19-0.16,7.91,1.55,10.94,4.43
			c2.55,2.43,4.9,5.08,7.32,7.66c2.14,2.29,4.15,4.72,6.43,6.86c1.06,1,2.62,1.46,3.82,2.1c-1.61,0.49-3.41,0.22-5.14-0.53
			c-2.56-1.1-4.44-3.08-6.27-5.09c-3.03-3.32-5.97-6.72-9.02-10.01c-3.97-4.29-8.91-5.22-14.4-3.86c-2.2,0.55-4.35,1.27-6.52,1.91
			C18.66,4.65,18.64,4.58,18.61,4.5z"/>
		<path class="st0" d="M10.95,1.98c2.61,0,5.21,0,7.82,0c0.01,0.06,0.03,0.11,0.04,0.17c-0.16,0.05-0.33,0.11-0.49,0.16
			c-1.21,0.34-1.68,0.96-1.69,2.24c0,3.94,0.07,7.88-0.02,11.82c-0.07,3.1-1.64,5.66-4.34,6.45c-2.16,0.63-4.36-0.06-5.05-1.42
			c0.91,0.15,2,0.54,3.05,0.45c1.76-0.15,2.8-1.34,2.9-3.13c0.11-2.04,0.07-4.08,0.09-6.12c0.01-2.51,0.04-5.02,0.01-7.52
			C13.23,2.98,12.84,2.55,10.95,1.98z"/>
		<path class="st0" d="M45.18,21.16c-2.02,0-3.79-0.01-5.56,0c-3.87,0.03-7.58,0.98-11.32,1.86c-3.93,0.92-7.84,1.9-11.81,2.6
			c-3.69,0.65-7.38,0.43-10.85-1.22c-1.36-0.65-2.4-1.66-2.98-3.08c-0.85-2.09-0.08-4.02,2.03-4.88c0.9-0.37,1.87-0.54,2.82-0.79
			c0.03,0.09,0.06,0.18,0.09,0.27c-0.17,0.1-0.34,0.23-0.52,0.29c-1.74,0.64-2.84,1.99-2.9,3.6c-0.05,1.42,1.06,3.05,2.59,3.74
			c2.09,0.94,4.32,1.12,6.5,0.73c5.4-0.96,10.77-2.12,16.15-3.2c4.87-0.98,9.77-1.08,14.68-0.3C44.39,20.83,44.67,20.98,45.18,21.16
			z"/>
		<path class="st0" d="M52.34,23.88c-3.16-1.14-6.38-1.65-9.67-1.37c-2.65,0.22-5.28,0.65-7.9,1.13c-4.46,0.83-8.89,1.79-13.34,2.67
			c-0.76,0.15-1.55,0.14-2.37,0.02c0.65-0.17,1.29-0.34,1.94-0.51c4.49-1.15,8.94-2.47,13.48-3.41c5.3-1.09,10.65-1.48,15.89,0.49
			c0.56,0.21,1.11,0.47,1.66,0.71C52.14,23.68,52.23,23.79,52.34,23.88z"/>
		<path class="st0" d="M49.58,1.99c2.05,0,4.11,0,6.11,0c-0.64,0.44-1.49,0.75-1.85,1.36c-0.39,0.65-0.42,1.56-0.43,2.37
			c-0.04,3.32-0.02,6.64-0.02,10.16c-1.08-0.89-1.86-1.6-1.77-3.05c0.14-2.46,0.01-4.94,0.05-7.41C51.69,3.82,51.47,2.45,49.58,1.99
			z"/>
		<path class="st0" d="M40.04,8.9c1.62,1.05,1.89,2.43,1.78,4.03c-0.09,1.35-0.04,2.72,0.05,4.08c0.07,1.17,0.66,2.01,1.89,2.27
			c0.1,0.02,0.19,0.09,0.28,0.15c0.05,0.03,0.08,0.09,0.16,0.2c-2.03,0-4,0-5.99,0c0-0.04-0.03-0.15-0.01-0.15
			c1.59-0.58,1.88-1.83,1.85-3.33C40.01,13.76,40.04,11.38,40.04,8.9z"/>
		<path class="st0" d="M13.82,23.25c1.65-0.94,2.71-2.34,3.32-4.15c0.41,0.31,0.78,0.59,1.21,0.92
			C17.24,21.68,15.77,22.78,13.82,23.25z"/>
	</g>
</g>
</svg>
