<?xml version="1.0" encoding="utf-8"?>
<!-- Generator: Adobe Illustrator 24.3.0, SVG Export Plug-In . SVG Version: 6.00 Build 0)  -->
<svg version="1.1" id="Layer_1" xmlns="http://www.w3.org/2000/svg" xmlns:xlink="http://www.w3.org/1999/xlink" x="0px" y="0px"
	 viewBox="0 0 166.9 121.1" style="enable-background:new 0 0 166.9 121.1;" xml:space="preserve">
<style type="text/css">
	.st0{fill:#15253B;}
	.st1{fill:#E0AD6B;}
</style>
<path class="st0" d="M23.2,119.3h120.5c12,0,21.7-9.7,21.7-21.7v0c0-12-9.7-21.7-21.7-21.7H23.2c-12,0-21.7,9.7-21.7,21.7v0
	C1.5,109.6,11.2,119.3,23.2,119.3z"/>
<g>
	<path class="st1" d="M96.5,10.9c0.8,0.6,1.6,1.1,2.3,1.8c5.4,5.3,10.7,10.7,16.1,16c0.8,0.8,1.1,1.6,1.1,2.7c0,6.1,0,12.2,0,18.4
		c0,1.8-0.7,2.7-1.8,2.7c-1.2,0-1.9-1-1.9-2.7c0-5.4,0-10.8,0-16.1c0-1.3,0-1.3-1.4-1.3c-3.3,0-6.6,0-9.9,0c-3.9,0-6.4-2.4-6.4-6.4
		c0-3.3,0-6.7,0-10c0-0.4,0-0.8,0-1.3c-0.4,0-0.8-0.1-1.1-0.1c-17.9,0-35.8,0-53.7,0c-1.6,0-2.3,0.7-2.3,2.3c0,29.1,0,58.2,0,87.2
		c0,1.7,0.7,2.3,2.4,2.3c19.3,0,38.6,0,57.9,0c0.3,0,0.6,0,1.2-0.1c-0.4-0.4-0.6-0.7-0.8-0.9c-5.4-5.2-6.8-12.9-3.5-19.7
		c2.3-4.6,4.6-9.1,7-13.6c0.4-0.8,0.5-1.4,0.1-2.3c-1.1-2-2.1-4-3.1-6.1c-0.9-2-0.2-4,1.7-4.7c0.7-0.3,1.5-0.2,2.3-0.1
		c0.4,0,0.9,0.3,1.2,0.6c1.1,0.8,2,0.9,3.1-0.1c1.3-1.1,3.3-1,4.9,0.1c0.8,0.6,1.3,0.6,2.1,0c1.6-1.2,3.5-1.2,5,0
		c1,0.8,1.8,0.8,2.9,0.1c0.6-0.4,1.3-0.7,2-0.9c1.3-0.3,2.5,0.2,3.3,1.2c0.9,1.1,0.9,2.4,0.3,3.7c-1,2.1-2,4.2-3.1,6.3
		c-0.3,0.7-0.3,1.2,0,1.9c2.3,4.5,4.7,9.1,6.9,13.7c4.9,10-0.6,21.5-11.4,24c-1.5,0.3-3,0.5-4.5,0.5c-24.9,0-49.9,0-74.8,0
		c-2.6,0-4.8-0.8-6-3.3c-0.4-1-0.7-2.1-0.7-3.2c0-28.8,0-57.6,0-86.5c0-3.5,1.8-5.6,5.2-6.3c0.2,0,0.4-0.1,0.5-0.2
		C58.6,10.9,77.5,10.9,96.5,10.9z M112.9,106.7c0-0.1,0-0.1,0-0.2c1.7,0,3.4,0.2,5,0c8.8-1,14.2-10.7,10.4-18.6
		c-2.3-4.8-4.7-9.4-7.1-14.1c-0.3-0.6-0.6-0.8-1.3-0.8c-4.6,0-9.2,0-13.8,0c-0.6,0-1,0.2-1.3,0.8c-0.9,1.7-1.8,3.5-2.6,5.2
		c-1.6,3.1-3.3,6.1-4.7,9.3c-3.3,7.5,0.9,16.1,8.9,18C108.5,106.6,110.7,106.5,112.9,106.7z M123.8,63.1c-0.4,0.1-0.5,0.1-0.6,0.1
		c-2.2,1.4-4.2,1.2-6.2-0.4c-0.5-0.5-1-0.2-1.5,0.1c-1.8,1.3-3.7,1.4-5.4,0c-0.7-0.5-1.2-0.5-1.9,0.1c-1.6,1.3-3.3,1.4-5.1,0.5
		c-0.2-0.1-0.5-0.2-1-0.4c0.2,0.6,0.3,0.9,0.5,1.2c0.7,1.4,1.4,2.8,2.1,4.2c0.3,0.8,0.8,1,1.6,1c3.8,0,7.6,0,11.3,0
		c3.6,0,2.6,0.6,4.3-2.8C122.6,65.5,123.2,64.4,123.8,63.1z M98.4,17.7c0,0.3,0,0.6,0,1c0,2.4,0,4.9,0,7.3c0,2.1,0.7,2.8,2.8,2.8
		c2.4,0,4.9,0,7.3,0c0.3,0,0.7-0.1,0.9-0.1C105.7,25,102,21.4,98.4,17.7z"/>
	<path class="st1" d="M62.4,52.2c0-0.1,0.1-0.6,0.3-0.9c2.2-5.1,4.3-10.2,6.5-15.4c0.4-0.8,0.8-1.5,1.8-1.5c1,0,1.5,0.6,1.8,1.5
		c2.2,5.2,4.4,10.4,6.6,15.6c0.7,1.6-0.2,3-1.7,2.7c-0.6-0.1-1.1-0.7-1.5-1.2c-0.4-0.6-0.6-1.4-1-2.1c-0.2-0.3-0.6-0.7-1-0.7
		c-2.2-0.1-4.4-0.1-6.6,0c-0.3,0-0.8,0.3-0.9,0.6c-0.4,0.8-0.7,1.7-1.2,2.6c-0.4,0.8-1.2,1-2,0.8C62.8,54,62.3,53.4,62.4,52.2z
		 M73.5,46.6c-0.8-1.9-1.6-3.7-2.3-5.4c-0.1,0-0.2,0-0.3,0c-0.7,1.8-1.5,3.5-2.2,5.4C70.3,46.6,71.8,46.6,73.5,46.6z"/>
	<path class="st1" d="M68.8,74.3c6,0,12,0,18.1,0c1.6,0,2.4,0.7,2.4,1.9c0,0.8-0.4,1.4-1.2,1.6c-0.5,0.1-1,0.2-1.4,0.2
		c-12,0-24,0-35.9,0c-1.7,0-2.5-0.6-2.6-1.7c-0.1-1.2,0.7-2,2.1-2c1.9,0,3.8,0,5.7,0C60.3,74.3,64.6,74.3,68.8,74.3z"/>
	<path class="st1" d="M68.9,96.1c6,0,12,0,18.1,0c1.5,0,2.4,0.7,2.4,1.8c0,0.8-0.4,1.4-1.2,1.7c-0.5,0.1-1,0.2-1.4,0.2
		c-11.9,0-23.7,0-35.6,0c-0.4,0-0.7,0-1.1-0.1c-1.1-0.2-1.7-0.9-1.7-1.8c0-0.9,0.7-1.6,1.8-1.8c0.3,0,0.6,0,1,0
		C57,96.1,62.9,96.1,68.9,96.1z"/>
	<path class="st1" d="M88.8,47.7c-0.6,0.9-1.1,1.7-1.6,2.5c-0.6,1-1.3,2-1.9,3c-0.7,1.1-1.7,1.4-2.6,0.8c-0.9-0.6-1.1-1.6-0.4-2.7
		c1.3-2.1,2.6-4.2,4-6.2c0.4-0.6,0.4-1,0-1.6c-1.3-2-2.6-4.1-3.9-6.1c-0.3-0.5-0.5-1.2-0.4-1.7c0.1-0.8,0.7-1.4,1.4-1.3
		c0.6,0,1.4,0.3,1.7,0.8c1.1,1.5,2.1,3.1,3.1,4.7c0.2,0.3,0.4,0.6,0.7,1c0.3-0.4,0.5-0.7,0.7-1c1-1.6,1.9-3.2,3-4.6
		c0.3-0.5,1.1-0.9,1.7-0.9c0.5,0.1,1.2,0.6,1.5,1.2c0.2,0.5,0,1.3-0.3,1.8c-1.2,2.1-2.5,4.1-3.9,6.1c-0.4,0.6-0.4,1.1,0,1.7
		c1.4,2.1,2.7,4.2,4,6.3c0.4,0.7,0.5,1.4,0,2.1c-0.4,0.6-1.1,0.9-1.8,0.7c-0.5-0.2-1.1-0.6-1.4-1.1c-1-1.4-1.8-2.9-2.8-4.3
		C89.4,48.5,89.1,48.2,88.8,47.7z"/>
	<path class="st1" d="M72.8,63.4c4.6,0,9.3,0,13.9,0c0.3,0,0.7,0,1,0.1c1.1,0.2,1.7,0.8,1.6,1.8c0,0.9-0.5,1.5-1.6,1.7
		c-0.3,0.1-0.7,0.1-1.1,0.1c-9.2,0-18.4,0-27.7,0c-0.2,0-0.3,0-0.5,0c-1.3-0.1-2.2-0.8-2.2-1.8c0-1.1,0.9-1.9,2.3-1.9
		c3.2,0,6.5,0,9.7,0C69.8,63.4,71.3,63.4,72.8,63.4z"/>
	<path class="st1" d="M72.9,85.2c4.7,0,9.4,0,14.2,0c1.5,0,2.3,0.7,2.3,1.9c0,0.8-0.4,1.4-1.2,1.6c-0.5,0.1-1,0.2-1.4,0.2
		c-9.3,0-18.5,0-27.8,0c-1.7,0-2.7-0.7-2.7-1.9c0-1.2,1-1.8,2.7-1.8C63.6,85.2,68.2,85.2,72.9,85.2z"/>
	<path class="st1" d="M53.3,45.5c0-2.1-0.1-4.3,0-6.4c0-1-0.4-1.3-1.3-1.2c-0.7,0.1-1.4,0-2,0c-1.1,0-1.8-0.6-1.8-1.6
		c0-1.1,0.6-1.8,1.7-1.9c0.6,0,1.2,0,1.7,0c2.8,0,5.5,0,8.3,0c0.9,0,1.6,0.3,2,1.1c0.5,1.1-0.2,2.3-1.3,2.4c-0.7,0.1-1.4,0-2.1,0
		c-1.6,0-1.6,0-1.6,1.5c0,4.3,0,8.6,0,12.9c0,1.4-0.7,2.1-1.9,2c-1-0.1-1.6-0.8-1.6-2C53.3,50,53.3,47.7,53.3,45.5z"/>
	<path class="st1" d="M48.2,65.3c0-1,0.7-1.8,1.7-1.8c0.9,0,1.8,0.9,1.8,1.8c0,0.9-0.8,1.8-1.8,1.7C48.9,67,48.2,66.3,48.2,65.3z"/>
	<path class="st1" d="M48.2,87.1c0-1,0.8-1.8,1.7-1.8c0.9,0,1.8,0.9,1.8,1.7c0,0.9-0.8,1.8-1.8,1.8C48.9,88.7,48.2,88.1,48.2,87.1z"
		/>
	<path class="st1" d="M119,85.2c0,1.6-0.6,2.3-1.6,2.4c-1.1,0.1-1.8-0.5-2-1.7c-0.3-2-2.6-2.8-4.2-1.5c-0.6,0.5-1,1.1-0.7,2
		c0.3,0.9,1.1,1.5,2.2,1.6c1,0.2,2.1,0.3,3,0.7c2,0.9,3.2,2.6,3.2,4.9c0,2.4-1.2,4-3.2,5c-0.6,0.3-1.1,0.6-1.2,1.3
		c-0.2,0.7-0.8,1.1-1.6,1.1c-0.8,0-1.4-0.4-1.6-1.2c-0.2-0.6-0.5-0.9-1.1-1.2c-1.8-0.9-2.9-2.3-3.3-4.3c-0.1-0.8-0.1-1.7,0.7-2.1
		c0.5-0.3,1.3-0.4,1.8-0.2c0.5,0.2,0.9,0.9,1,1.5c0.3,1,0.7,1.6,1.6,2c1,0.4,1.9,0.2,2.7-0.5c1.1-1,0.7-2.7-0.7-3.3
		c-0.5-0.2-1-0.2-1.5-0.3c-2.8-0.2-5-2-5.5-4.7c-0.5-2.3,0.9-4.8,3.3-6c0.4-0.2,0.8-0.6,1-1c0.4-0.7,0.9-1.1,1.7-1.1
		c0.8,0,1.3,0.5,1.7,1.1c0.2,0.4,0.6,0.8,1,1C117.6,81.7,118.8,83.3,119,85.2z"/>
</g>
</svg>
