<?xml version="1.0" encoding="utf-8"?>
<!-- Generator: Adobe Illustrator 24.3.0, SVG Export Plug-In . SVG Version: 6.00 Build 0)  -->
<svg version="1.1" id="Layer_1" xmlns="http://www.w3.org/2000/svg" xmlns:xlink="http://www.w3.org/1999/xlink" x="0px" y="0px"
	 viewBox="0 0 166.9 121.1" style="enable-background:new 0 0 166.9 121.1;" xml:space="preserve">
<style type="text/css">
	.st0{fill:#15253B;}
	.st1{fill:#E0AD6B;}
</style>
<path class="st0" d="M23.2,119.3h120.5c12,0,21.7-9.7,21.7-21.7v0c0-12-9.7-21.7-21.7-21.7H23.2c-12,0-21.7,9.7-21.7,21.7v0
	C1.5,109.6,11.2,119.3,23.2,119.3z"/>
<path class="st1" d="M81.1,106.9c0.2-0.1,0.7-0.3,1-0.7c1.1-1.8,2.2-3.6,3.3-5.5c0.4-0.7,0.1-1.6-0.6-2c-0.7-0.5-1.7-0.4-2.2,0.3
	c-1.2,1.8-2.3,3.6-3.3,5.5C78.8,105.6,79.6,106.9,81.1,106.9 M72.4,100.4c0,1.4,0.7,2.3,1.7,2.6c1.1,0.3,2.2,0,2.9-1.1
	c1-1.6,2-3.3,3-5c0.8-1.4,0.5-2.9-0.8-3.6c-1.2-0.7-2.6-0.3-3.5,1.1c-1,1.6-1.9,3.1-2.8,4.7C72.7,99.6,72.5,100.1,72.4,100.4
	 M60.9,94.7c0.6-0.4,1.4-0.6,1.8-1.1c1.3-1.8,2.4-3.7,3.5-5.7c0.6-1.1,0.1-2.5-1-3.1c-1.1-0.7-2.5-0.5-3.2,0.6
	c-1.2,1.9-2.4,3.7-3.4,5.7C57.7,92.7,59,94.5,60.9,94.7 M67.9,99c0.6-0.4,1.5-0.7,1.8-1.2c1.5-2.3,2.9-4.6,4.2-6.9
	c0.7-1.2,0.2-2.5-0.9-3.2c-1.1-0.7-2.5-0.4-3.3,0.7c-1.5,2.3-2.9,4.6-4.2,7C64.8,96.9,66,98.8,67.9,99 M42.1,83.7v-1.1V68.9
	c0-2,0-3.9,0-5.9c0-0.3-0.3-0.8-0.4-0.8c-1.5-0.1-3,0-4.5,0v21.4H42.1z M124.9,82h4.8V60.6h-4.8V82z M106.4,37.3h16.9
	c-2.8-4.5-5.6-8.9-8.5-13.4C112,28.5,109.3,32.8,106.4,37.3 M43.6,37.3h16.9c-2.8-4.5-5.6-8.9-8.5-13.4
	C49.2,28.5,46.4,32.8,43.6,37.3 M83.5,27.5c3.7,0,6.6-2.9,6.6-6.6c0-3.6-2.9-6.6-6.6-6.6c-3.7,0-6.6,3-6.6,6.7
	C76.9,24.6,79.8,27.5,83.5,27.5 M61.9,40.8H42.2c0,1.8-0.1,3.6,0,5.4c0.1,1.5,1.4,2.8,3,2.8c4.6,0,9.2,0,13.7,0c1.5,0,2.9-1.3,3-2.8
	C62,44.4,61.9,42.6,61.9,40.8 M105,40.8c0,1.8-0.1,3.6,0,5.4c0.1,1.5,1.4,2.8,3,2.8c4.6,0,9.2,0,13.8,0c1.4,0,2.7-1.1,2.8-2.5
	c0.2-1.9,0-3.8,0-5.7H105z M80.2,56.3c1.2-0.6,2.1-1.3,3.2-1.6c1.1-0.4,2.2-0.6,3.4-0.8V30.2c-2.2,0.7-4.3,0.7-6.5,0V56.3z
	 M121.4,78.8V63.9h-1.1c-5.7,0-11.4,0-17,0c-1.4,0-2.7-0.3-3.9-0.9c-3.3-1.7-6.6-3.4-9.9-5c-2.4-1.2-5-0.8-6.8,1
	c-3.4,3.4-6.7,6.9-9.9,10.5C72.2,70,72,70.9,72,71.6c0,1,0.7,1.7,1.6,2c1,0.4,2,0.1,2.8-0.6c2.6-2.4,5.2-4.9,7.9-7.3
	c1.8-1.6,3.1-1.7,5.1-0.4c7,4.9,14.1,9.8,21.1,14.7c1,0.7,1.7,0.9,2.9,0.4C115.9,79.3,118.6,78.9,121.4,78.8 M45.5,80.7
	c4.5,0.9,8.6,2.5,12.4,5c1.2-2.4,2.7-4.3,5.4-4.5c2.7-0.2,4.6,1.1,5.9,3.4c4.6-1.4,6.9,0,8.5,5.1c0.1,0,0.3,0,0.4,0
	c3,0.2,4.9,1.8,5.5,4.8c0.1,0.6,0.5,0.6,0.9,0.6c2.3,0.4,3.9,1.9,4.2,4c0.1,1.1-0.2,2.3-0.3,3.6c1.4,1,3.1,2.3,4.7,3.4
	c0.9,0.6,1.8,0.5,2.4-0.3c0.6-0.8,0.4-1.7-0.5-2.4c-0.8-0.6-1.7-1.2-2.5-1.8c-0.9-0.7-1.1-1.6-0.6-2.4c0.6-0.8,1.5-0.9,2.5-0.3
	c1,0.7,2,1.4,3,2.1c0.4,0.3,0.8,0.5,1.2,0.6c1.1,0.3,2.3-0.2,2.9-1.2c0.6-1.1,0.3-2.3-0.8-3.2c-1.8-1.4-3.7-2.7-5.5-4
	c-0.9-0.7-1-1.6-0.5-2.4c0.6-0.8,1.5-0.9,2.4-0.3c1,0.7,2,1.5,3.1,2.2c1.2,0.9,2.5,1.9,3.8,2.7c1.2,0.8,2.6,0.6,3.5-0.4
	c0.8-1.1,0.7-2.4-0.3-3.4c-0.4-0.4-0.8-0.7-1.2-1c-1.7-1.3-3.5-2.5-5.2-3.8c-0.8-0.6-0.9-1.6-0.4-2.3c0.5-0.7,1.5-0.9,2.3-0.3
	c0.2,0.1,0.4,0.3,0.6,0.5c1.4,1,2.9,2.1,4.3,3.1c0.9,0.6,1.9,0.7,2.8,0.1c0.9-0.5,1.2-1.4,1.1-2.4c-0.1-0.9-0.7-1.5-1.4-2
	c-6.7-4.6-13.3-9.3-20-13.9c-1.1-0.7-2.1-1.5-3.2-2.2c-0.3,0.3-0.5,0.5-0.8,0.7c-2.5,2.4-5.1,4.7-7.6,7.1c-1.6,1.4-3.4,2-5.5,1.5
	c-4.5-1.1-6-6.4-2.9-9.8c2.3-2.5,4.6-4.9,6.9-7.3c0.2-0.2,0.3-0.4,0.6-0.7c-6.2-0.8-11.6,0.7-16.3,4.5c-1.6,1.3-3.2,1.9-5.2,1.9
	c-3.2,0-6.5,0-9.7,0c-0.3,0-0.7,0-1,0V80.7z M133.1,59.8v23.1c-0.6,1.4-1.5,2.5-3.2,2.5c-1.7,0-3.4,0-5.1,0c-1.5,0-2.7-1-3.1-2.5
	c-0.1-0.2-0.2-0.5-0.3-0.9c-2.4,0.5-4.7,0.9-7.1,1.4c0.8,1.8,0.9,3.4,0.2,5c-0.7,1.6-1.9,2.6-3.5,3.2c1.3,3.8-1.1,7.9-5.8,8
	c-0.1,1.6-0.7,2.9-1.8,4c-1.1,1.1-2.6,1.6-4.1,1.6c-0.9,4.4-4.8,6-8.4,3.4c-1.5-1.1-2.9-2.1-4.4-3.2c-1.1,2.1-2.3,4.1-4.7,4.7H80
	c-2-0.6-3.4-1.7-4-3.8c-1.6,0.3-2.9,0-4.2-0.8c-1.3-0.8-2.1-2.1-2.5-3.5c-4,0.2-5.3-0.6-7.1-4.3c-2.5,0.4-4.7-0.3-6.1-2.5
	c-1.5-2.2-1.2-4.5,0.1-6.7c-2.4-2-8.3-4.3-10.7-4.4c-0.4,1.6-1.3,2.7-3,2.8c-1.8,0.1-3.7,0.1-5.5,0c-1.7-0.1-3-1.5-3-3.2
	c0-7.2,0-14.4,0-21.6c0-1.7,1.2-3.1,2.9-3.2c1.9-0.1,3.8-0.1,5.7,0c1.4,0.1,2.4,1,2.8,2.4c0.1,0.3,0.2,0.5,0.2,0.8
	c3.4,0,6.8,0,10.1,0c1.5,0,2.8-0.4,4-1.4c4-3.1,8.4-5.1,13.5-5.3c1.2,0,2.4,0,3.7,0c0-0.2,0-0.3,0-0.5c0-8.8,0-17.5,0-26.3
	c0-0.3-0.1-0.6-0.2-0.8c-1.5-1.5-2.5-3.3-2.9-5.4H55.2c0.1,0.2,0.1,0.3,0.1,0.3c3.2,5,6.3,10,9.5,15c0.3,0.4,0.4,0.9,0.4,1.4
	c0,2.1,0,4.1,0,6.2c0,3.9-2.8,6.7-6.7,6.7c-4.4,0-8.7,0-13.1,0c-3.9,0-6.6-2.8-6.7-6.7c0-2.1,0-4.1,0-6.2c0-0.4,0.1-0.9,0.3-1.3
	c3-4.8,6.1-9.6,9.2-14.5c0.2-0.3,0.4-0.6,0.6-1.1h-1.2c-3.8,0-7.7,0-11.5,0c-1.6,0-2.4-0.6-2.4-1.7c0-1.1,0.8-1.6,2.4-1.6
	c12.1,0,24.2,0,36.3,0c0.8,0,1.1-0.2,1.4-1c1.2-4.3,5.1-7.3,9.5-7.3c4.5,0,8.3,2.9,9.5,7.3c0.2,0.9,0.6,1,1.5,1
	c12.1,0,24.2,0,36.2,0c1,0,1.8,0.2,2.4,1v1.2c-0.5,0.9-1.3,1.2-2.4,1.1c-3.9,0-7.7,0-11.6,0H118c0.1,0.3,0.2,0.4,0.2,0.5
	c3.1,5,6.3,9.9,9.4,14.9c0.2,0.4,0.4,0.9,0.5,1.3c0,2.2,0.1,4.5,0,6.7c-0.1,3.6-2.8,6.3-6.4,6.3c-4.5,0.1-9,0.1-13.6,0
	c-3.6-0.1-6.4-2.9-6.4-6.5c0-2.1,0-4.3,0-6.4c0-0.4,0.1-0.9,0.3-1.3c3.1-4.9,6.2-9.8,9.3-14.7c0.1-0.2,0.3-0.5,0.4-0.8H93.2
	c-0.4,2.1-1.4,3.9-2.9,5.4c-0.2,0.2-0.3,0.6-0.3,0.9c0,8.4,0,16.7,0,25.1c0,0.3,0.3,0.8,0.6,0.9c3.4,1.8,6.9,3.5,10.4,5.2
	c0.6,0.3,1.3,0.5,1.9,0.5c5.8,0,11.7,0,17.5,0h0.9c0.7-2.6,1.6-3.3,4.2-3.3c1.1,0,2.2,0.1,3.3,0C130.9,57.1,132.3,57.9,133.1,59.8"
	/>
</svg>
