<?xml version="1.0" encoding="utf-8"?>
<!-- Generator: Adobe Illustrator 24.3.0, SVG Export Plug-In . SVG Version: 6.00 Build 0)  -->
<svg version="1.1" id="Layer_1" xmlns="http://www.w3.org/2000/svg" xmlns:xlink="http://www.w3.org/1999/xlink" x="0px" y="0px"
	 viewBox="0 0 166.9 121.1" style="enable-background:new 0 0 166.9 121.1;" xml:space="preserve">
<style type="text/css">
	.st0{fill:#15253B;}
	.st1{fill:#E0AD6B;}
</style>
<path class="st0" d="M23.2,119.3h120.5c12,0,21.7-9.7,21.7-21.7v0c0-12-9.7-21.7-21.7-21.7H23.2c-12,0-21.7,9.7-21.7,21.7v0
	C1.5,109.6,11.2,119.3,23.2,119.3z"/>
<g>
	<path class="st1" d="M87.7,100.7c0.2-2.4-0.7-3.4-3-3.4c-5.6,0-11.2,0-16.8,0c-2.2,0-3.1,1.2-2.8,3.4H87.7z M88.9,75.4
		c-1.2,0-2.2,0.8-2.7,1.8c-0.4,1,0.1,1.6,0.7,2.2c4.7,4.6,9.3,9.3,13.9,14c0.9,1,2.2,0.5,3-0.2c1-1,1.1-2.1,0.2-3
		c-4.7-4.7-9.5-9.5-14.2-14.2C89.5,75.7,89,75.5,88.9,75.4 M115.4,81.4c-1.1,1.1-2.2,2.2-3.3,3.3c1.3,1.6,2.6,3.3,3.9,4.9
		c2.1,2.7,4.2,5.4,6.4,8.1c1.7,2.2,3.8,2.3,5.8,0.5c0.4-0.3,0.7-0.7,1-1.1c1.4-1.8,1.2-3.8-0.5-5.2
		C124.3,88.4,119.8,84.9,115.4,81.4 M101.4,36.5c-7-6.9-13.8-13.7-20.8-20.6c0,5.6,0,10.9,0,16.2c0,2.9,1.5,4.4,4.3,4.4
		c5.1,0,10.2,0,15.3,0H101.4z M118,74.4c-1.5-1.4-2.9-2.8-4.3-4.2c-0.7-0.7-0.8-1.4-0.3-2.1c0.6-0.8,1.5-0.8,2.3,0.1
		c1.7,1.7,3.4,3.4,5.1,5.1c0.9,0.9,1.9,0.9,2.9-0.1c1-1,1.1-2.1,0.2-3c-4.7-4.7-9.4-9.4-14.1-14.1c-0.9-0.9-1.9-0.9-3,0.1
		c-1,1-1.1,2.1-0.2,3c1.2,1.3,2.5,2.5,3.8,3.8c0.8,0.8,0.9,1.6,0.3,2.3c-0.6,0.7-1.5,0.6-2.4-0.2c-1-1-1.9-1.9-2.8-2.8
		c-4.3,4.3-8.5,8.6-12.6,12.6c4.1,4.1,8.2,8.2,12.3,12.4C109.5,83,113.7,78.8,118,74.4 M60,110.1c-1.7-0.6-2-2-1.9-3.7H57
		c-4.5,0-8.9,0-13.4,0c-5.8,0-9.8-4-9.8-9.8c0-21.2,0-42.4,0-63.6c0-0.3,0-0.7,0-1c0.2-0.7,0.7-1.2,1.5-1.2c0.7,0,1.2,0.4,1.4,1.1
		c0.1,0.4,0,0.8,0,1.2c0,21.1,0,42.2,0,63.2c0,4.5,2.6,7.1,7.1,7.1c4.7,0,9.4,0,14,0c0.6,0,1-0.2,1.4-0.6c0.6-0.7,1.4-1.2,2.2-1.7
		c0.5-0.3,0.7-0.5,0.6-1c-0.3-3.1,2.2-5.9,6-5.8c5.5,0.1,11,0.2,16.6,0c3.8-0.1,6.3,2.8,6,6c0,0.2,0,0.3,0,0.5
		c1.4,0.5,2.5,1.3,3.3,2.6c0.1,0.1,0.3,0.2,0.5,0.2c1.4,0,2.9,0.1,4.2-0.2c3.1-0.6,5.1-3.6,4.7-6.8c-0.3,0-0.7,0.1-1,0.1
		c-1.3,0.1-2.4-0.3-3.3-1.2c-4.9-4.9-9.9-9.9-14.8-14.8c-1.1-1.2-1.4-2.6-1-4.1c0.8-3,3.7-4.8,6.7-4.1c0.3,0.1,0.8,0,1-0.3
		c4.1-4,8.2-8.1,12.2-12.2c0.2-0.2,0.3-0.6,0.3-1c0-0.7-0.1-1.3-0.1-2c0-5.9,0-11.8,0-17.8h-1.1c-5.6,0-11.3,0-16.9,0
		c-4.8,0-7.5-2.7-7.5-7.5c0-5.6,0-11.1,0-16.7V14c-1.6,0-3.1,0-4.7,0c-9.8,0-19.7-0.1-29.5-0.1c-4,0-6.7,2.7-6.7,6.7
		c0,1.5,0,3.1,0,4.6c0,1.1-0.6,1.8-1.5,1.8c-0.9,0-1.4-0.7-1.4-1.8c0-2-0.1-4.1,0.1-6.1c0.6-4.8,4.5-8.1,9.3-8.1c10.7,0,21.3,0,32,0
		c0.5,0,0.9,0,1.4,0c2,0,3.8,0.7,5.3,2.1c7.5,7.4,14.9,14.8,22.4,22.1c1.4,1.4,2.1,3.2,2.1,5.2c0,3.7,0,7.5,0,11.2v1.1
		c0.3-0.1,0.6-0.2,0.9-0.2c1.7-0.5,3.3-0.2,4.6,1.1c4.7,4.8,9.5,9.5,14.2,14.3c1.7,1.7,1.9,3.8,0.8,5.8c-1.2,2.1-3.7,3.4-5.7,2.8
		c-0.7-0.2-1.2,0-1.7,0.5c-0.7,0.7-1.4,1.3-2.2,2.1c1.9,1.5,3.7,2.9,5.5,4.3c2,1.6,4.1,3.3,6.2,4.8c1.9,1.4,3.5,3,4.2,5.3v2.1
		c-0.7,1.3-1.2,2.8-2.2,3.9c-1.8,2-4,3.4-6.9,2.7c-1.9-0.5-3.3-1.9-4.5-3.4c-2.2-2.8-4.4-5.6-6.6-8.4c-1-1.3-2-2.5-3-3.9
		c-0.9,0.9-1.7,1.7-2.4,2.5c-0.2,0.2-0.2,0.6-0.1,0.8c0.3,1.1,0.4,2.3-0.3,3.3c-0.8,1.2-0.7,2.6-0.7,3.9c0,5.5-4,9.4-9.5,9.5
		c-0.7,0-1.5,0-2.3,0c0.2,1.7-0.3,2.8-1.8,3.5H73.6c-0.3-0.4-0.9-0.8-1-1.3c-0.2-1,0.5-1.6,1.8-1.6c5.4,0,10.8,0,16.2,0h1
		c0.4-2.2-0.5-3.5-2.4-3.5c-8.5,0-17,0-25.5,0c-1.9,0-3,1.6-2.4,3.5c1.8,0,3.7,0,5.5,0c0.8,0,1.6,0.1,1.8,1c0.3,0.9-0.2,1.5-1,1.9
		H60z"/>
	<path class="st1" d="M65.3,62.7c-5.4,0-10.8,0-16.3,0c-0.4,0-0.7,0-1.1,0c-0.8-0.1-1.2-0.6-1.2-1.4c0-0.7,0.4-1.2,1.1-1.4
		c0.3-0.1,0.6-0.1,0.9-0.1c11,0,22,0,33,0c0.3,0,0.7,0,1,0.1c0.7,0.2,1.1,0.7,1,1.4c0,0.7-0.4,1.2-1.2,1.3c-0.3,0.1-0.7,0-1.1,0
		C76.1,62.7,70.7,62.7,65.3,62.7"/>
	<path class="st1" d="M62.3,86c-4.5,0-8.9,0-13.4,0c-0.4,0-0.8,0.1-1-0.1c-0.5-0.3-1-0.8-1.1-1.3c0-0.5,0.5-1,0.9-1.4
		c0.2-0.2,0.7-0.2,1.1-0.2c9,0,18,0,27,0c0.4,0,0.7,0,1.1,0.1c0.7,0.2,1.1,0.7,1,1.4c0,0.7-0.5,1.2-1.2,1.3c-0.3,0.1-0.7,0-1.1,0
		C71.2,86,66.7,86,62.3,86"/>
	<path class="st1" d="M60.6,74.4c-3.8,0-7.6,0-11.3,0c-0.4,0-0.8,0.1-1-0.1c-0.4-0.3-1-0.8-1.1-1.3c0-0.5,0.5-1,0.9-1.4
		c0.3-0.2,0.8-0.2,1.2-0.2c7.6,0,15.2,0,22.7,0c0.4,0,0.8,0,1.1,0.1c0.7,0.2,1.1,0.7,1,1.4c0,0.7-0.5,1.2-1.2,1.3
		c-0.3,0.1-0.6,0-1,0C68.3,74.4,64.4,74.4,60.6,74.4"/>
	<path class="st1" d="M59.7,39.5c-3.5,0-6.9,0-10.4,0c-0.3,0-0.6,0-1,0c-0.7-0.1-1.1-0.6-1.2-1.3c0-0.7,0.3-1.3,1-1.4
		c0.4-0.1,0.8-0.1,1.1-0.1c6.9,0,13.9,0,20.8,0c0.4,0,0.7,0,1.1,0.1c0.8,0.2,1.1,0.7,1.1,1.5c0,0.7-0.5,1.2-1.2,1.3
		c-0.3,0-0.6,0-1,0C66.6,39.5,63.1,39.5,59.7,39.5"/>
	<path class="st1" d="M58.8,51.1c-3.3,0-6.6,0-9.9,0c-0.3,0-0.6,0-1,0c-0.7-0.1-1.1-0.6-1.2-1.3c0-0.7,0.3-1.2,1-1.4
		c0.3-0.1,0.7-0.1,1.1-0.1c6.6,0,13.2,0,19.8,0c0.3,0,0.6,0,1,0.1c0.8,0.2,1.2,0.7,1.1,1.5c0,0.8-0.5,1.3-1.3,1.3
		c-0.4,0-0.8,0-1.2,0C65.1,51.1,62,51.1,58.8,51.1"/>
	<path class="st1" d="M84.1,51.1c-2.6,0-5.2,0-7.8,0c-0.8,0-1.3-0.3-1.5-1.1c-0.2-0.7,0-1.3,0.7-1.6c0.4-0.2,0.9-0.2,1.3-0.2
		c3.5,0,6.9,0,10.3,0c1.6,0,3.2,0,4.8,0c1,0,1.6,0.7,1.5,1.5c0,0.8-0.6,1.3-1.6,1.4c-0.3,0-0.5,0-0.8,0
		C88.8,51.1,86.5,51.1,84.1,51.1"/>
</g>
</svg>
