<?xml version="1.0" encoding="utf-8"?>
<!-- Generator: Adobe Illustrator 24.3.0, SVG Export Plug-In . SVG Version: 6.00 Build 0)  -->
<svg version="1.1" id="Layer_1" xmlns="http://www.w3.org/2000/svg" xmlns:xlink="http://www.w3.org/1999/xlink" x="0px" y="0px"
	 viewBox="0 0 166.9 121.1" style="enable-background:new 0 0 166.9 121.1;" xml:space="preserve">
<style type="text/css">
	.st0{fill:#15253B;}
	.st1{fill:#E0AD6B;}
</style>
<path class="st0" d="M23.2,119.3h120.5c12,0,21.7-9.7,21.7-21.7v0c0-12-9.7-21.7-21.7-21.7H23.2c-12,0-21.7,9.7-21.7,21.7v0
	C1.5,109.6,11.2,119.3,23.2,119.3z"/>
<path class="st0" d="M23.2,119.3h120.5c12,0,21.7-9.7,21.7-21.7v0c0-12-9.7-21.7-21.7-21.7H23.2c-12,0-21.7,9.7-21.7,21.7v0
	C1.5,109.6,11.2,119.3,23.2,119.3z"/>
<g>
	<path class="st1" d="M116.1,81.8c0,0.7,0,1.1,0,1.5c0,8.4,0,16.8,0,25.1c0,1.5-0.3,1.8-1.7,1.8c-22.6,0-45.2,0-67.8,0
		c-1.5,0-1.8-0.3-1.8-1.8c0-1.5-0.1-3,0-4.4c0-0.9-0.3-1.2-1.2-1.2c-1.6,0.1-3.2,0-4.9,0c-1,0-1.4-0.4-1.4-1.4c0-0.2,0-0.4,0-0.6
		c0-29.3,0-58.5,0-87.8c0-1.8,0.2-2.1,2.1-2.1c22.4,0,44.8,0,67.3,0c1.8,0,2,0.2,2,1.9c0,1.4,0.1,2.8,0,4.1c-0.1,1,0.2,1.4,1.3,1.4
		c1.5-0.1,3,0,4.6,0c1.3,0,1.5,0.2,1.5,1.6c0,16.5,0,32.9,0,49.4c0,1.1,0.3,1.7,1.2,2.2c3.4,2,6.7,4.1,10,6.3c1.6,1,2.4,2.6,2.2,4.5
		c-0.3,2.2-1.5,3.6-3.6,4.2c-1.4,0.4-2.7,0.1-3.9-0.7c-1.6-1.1-3.2-2.2-4.8-3.3C116.9,82.2,116.6,82.1,116.1,81.8z M106.6,49.7
		c0-0.5,0.1-0.8,0.1-1.1c0-11.5,0-23,0-34.6c0-0.9-0.4-1-1.2-1c-14.5,0-28.9,0-43.4,0c-0.4,0-0.7,0-1.2,0.1c0,3.5,0,6.8,0,10.1
		c0,0.8,0.1,1.6,0,2.4c-0.1,0.4-0.4,1-0.7,1.2c-0.3,0.1-0.9-0.2-1.2-0.4c-0.5-0.5-1-1.1-1.4-1.6c-0.7-0.8-1.4-1.5-2.1-2.3
		c-1.1,1.3-2.2,2.5-3.2,3.6c-0.4,0.5-0.9,1.2-1.6,0.7c-0.4-0.3-0.6-1-0.6-1.6c-0.1-3.6,0-7.2,0-10.8c0-0.4-0.1-0.9-0.1-1.3
		c-3.5,0-7,0-10.5,0c0,0.5,0,0.9,0,1.3c0,28.3,0,56.5,0,84.8c0,1.5,0,1.5,1.5,1.5c21.4,0,42.8,0,64.2,0c0.2,0,0.4,0,0.6,0
		c0.6,0.1,0.9-0.2,0.9-0.9c0-8.1,0-16.3,0-24.4c0-0.4-0.2-0.8-0.5-1c-1.4-1.1-2.9-2.1-4.3-3.2c-0.2-0.2-0.7-0.2-1,0
		c-1.1,0.6-2.2,0.6-3.2-0.1c-0.8-0.6-1.4-0.4-1.9,0.4c-0.2,0.4-0.4,0.7-0.7,1c-0.3,0.4-0.3,0.7,0.1,1.2c0.9,1,0.9,2.2,0.2,3.4
		c-0.3,0.5-0.7,1-1,1.5c-1.2,1.8-2.7,2.1-4.5,0.9c-0.7-0.4-1.4-0.9-2.1-1.4c-0.1,0.6-0.2,1-0.3,1.5C86,88.4,77,94.3,68.3,92.2
		c-7.8-1.9-13.2-9.4-12-17.7c1.3-8.7,10-14.9,18.6-13c2.9,0.6,5.5,1.9,7.7,4c1.2,1.1,2,1.1,2.8-0.3c0.4-0.6,0.5-1.4,0.7-2.1
		c0.2-0.5,0.3-1.1,0.6-1.6c1.4-2.1,2.8-4.2,4.2-6.3c0.3-0.4,0.7-1,1.2-1.1c1.2-0.3,1.6-1.3,2.2-2.1c0.3-0.4,0.3-0.7,0-1.2
		c-0.9-1.2-0.9-2.2-0.1-3.4c0.3-0.6,0.7-1.1,1.1-1.6c1.1-1.6,2.6-1.9,4.3-0.8c1.4,0.9,2.9,1.9,4.3,2.9
		C104.8,48.5,105.6,49.1,106.6,49.7z M108.8,76.3c0,0.7-0.1,1.1-0.1,1.5c0,7.7,0,15.3,0,23c0,1.9,0,1.9-1.9,1.9
		c-19.4,0-38.7,0-58.1,0c-0.3,0-0.7,0-1,0c-0.7,0-0.9,0.2-0.9,0.9c0,1.1,0.1,2.2,0,3.3c-0.1,0.9,0.3,1.1,1.1,1.1c2.9,0,5.9,0,8.8,0
		c18.7,0,37.4,0,56.1,0c0.6,0,1.3,0.2,1.3-0.9c0-8.7,0-17.5,0-26.2c0-0.3-0.1-0.8-0.3-0.9C112.2,78.8,110.6,77.6,108.8,76.3z
		 M81.1,66.9c-0.2-0.2-0.3-0.4-0.5-0.5c-3.3-2.7-7-3.7-11.1-2.9c-6.8,1.2-11.5,7.4-11.2,14.1c0.3,6.5,5.7,13.1,14,12.9
		c7.2-0.2,12.8-5.7,13.3-12.9c0-0.7-0.1-1.1-0.7-1.5c-1.5-0.9-2.9-1.9-4.4-2.9c-1.5-1.1-1.8-2.6-0.8-4.1
		C80.2,68.4,80.6,67.7,81.1,66.9z M114,69.5c0-0.7,0.1-1.2,0.1-1.7c0-15.2,0-30.5,0-45.7c0-0.2,0-0.5,0-0.7c0.1-0.7-0.2-1-1-1
		c-1.1,0-2.2,0.1-3.3,0c-0.9,0-1.1,0.3-1.1,1.1c0,9.6,0,19.2,0,28.9c0,0.4,0.1,0.8,0.4,1.1c1.6,1.6,1.7,2.6,0.4,4.6
		c-0.4,0.6-0.8,1.2-0.8,1.8c-0.1,2.5,0,5.1,0,7.7c0,0.3,0.1,0.8,0.3,0.9C110.6,67.4,112.2,68.4,114,69.5z M127.4,81.6
		c0.1-1-0.6-1.7-1.6-2.3c-6.3-3.9-12.6-7.8-19-11.7c-2.4-1.5-2.3-1.4-3.9,0.8c-0.4,0.6-0.3,1,0.3,1.4c4.2,3,8.3,6.1,12.5,9.1
		c2.4,1.8,4.9,3.5,7.3,5.2c0.9,0.6,1.9,0.7,2.9,0.2C126.9,83.7,127.4,82.9,127.4,81.6z M96,68.9c0.3-0.3,0.7-0.5,0.9-0.8
		c1.4-2,2.7-3.9,4-5.9c0.6-1,0.6-1.3-0.4-1.9c-2-1.4-4-2.7-6-4c-0.8-0.6-1.4-0.4-1.9,0.4c-1.3,2-2.6,3.9-3.9,5.8
		c-0.7,1-0.6,1.3,0.4,2c2,1.3,3.9,2.7,5.9,4C95.3,68.6,95.6,68.7,96,68.9z M52.2,22.8c0.1,0,0.2,0,0.3,0c0.6-0.7,1.3-1.4,1.9-2.1
		c1-1.1,1.4-1.1,2.4,0c0.6,0.7,1.3,1.4,2.1,2.4c0-3.5,0-6.7,0-9.9c-2.2,0-4.4,0-6.6,0C52.2,16.4,52.2,19.6,52.2,22.8z M108.6,53.8
		c-0.4-0.4-0.7-0.7-1-1c-2.6-1.8-5.2-3.5-7.8-5.2c-2.3-1.5-1.9-1.8-3.7,0.9c-0.4,0.6-0.3,1.1,0.3,1.5c3.1,2.1,6.2,4.2,9.3,6.2
		c0.3,0.2,0.8,0.3,0.9,0.2C107.2,55.6,107.8,54.8,108.6,53.8z M93.9,75.6c0.1-0.2,0.2-0.3,0.3-0.5c-0.4-0.2-0.8-0.4-1.2-0.6
		c-2.6-1.7-5.2-3.5-7.8-5.2c-2.3-1.5-2-1.7-3.7,0.8c-0.4,0.7-0.4,1.1,0.3,1.6c3.1,2.1,6.2,4.2,9.4,6.3c0.2,0.2,0.7,0.3,0.8,0.2
		C92.7,77.3,93.3,76.5,93.9,75.6z M94.2,70.3c-1.8-1.2-3.6-2.4-5.4-3.6c-1.3-0.9-1.3-0.9-2.1,0.4c-0.1,0.1-0.1,0.3-0.3,0.5
		c2.2,1.5,4.3,2.9,6.5,4.4C93.4,71.5,93.7,70.9,94.2,70.3z M103,56.9c-2.1-1.4-4.3-2.9-6.5-4.3c-0.4,0.6-0.8,1.2-1.2,1.8
		c1.8,1.2,3.5,2.4,5.2,3.5c1.5,1,1.5,1,2.3-0.5C102.9,57.2,102.9,57.2,103,56.9z M106.3,64.9c0.1-0.1,0.3-0.1,0.4-0.2
		c0-1.6,0-3.2,0-4.8c0-0.5,0.3-1.2-0.5-1.3c-0.7-0.1-1.5-0.5-2,0.5c-0.1,0.3-0.3,0.5-0.5,0.8c-0.5,0.6-0.5,1.1,0.3,1.6
		c0.8,0.5,1.3,1.2,1.5,2.2C105.6,64.1,106,64.5,106.3,64.9z M102.7,63.1c-1.2,1.8-2.4,3.6-3.6,5.3c-0.2,0.3-0.1,0.7-0.2,1
		c0.4-0.1,0.9-0.2,1.1-0.4c1.1-1.5,2.1-3.1,3.1-4.6C103.5,63.9,103.5,63.5,102.7,63.1z"/>
	<path class="st1" d="M67.7,44.1c6.2,0,12.3,0,18.5,0c0.3,0,0.7-0.1,0.9,0c0.4,0.2,0.8,0.6,0.8,1c0,0.3-0.4,0.8-0.8,1
		c-0.4,0.2-0.9,0.1-1.3,0.1c-12.2,0-24.3,0-36.5,0c-0.4,0-0.9,0-1.2-0.1c-0.3-0.2-0.8-0.6-0.8-0.9c0-0.4,0.4-0.8,0.8-1
		c0.2-0.2,0.6-0.1,0.9-0.1C55.3,44.1,61.5,44.1,67.7,44.1z"/>
	<path class="st1" d="M67.5,52.4c-6.1,0-12.3,0-18.4,0c-0.3,0-0.8,0.1-1,0c-0.4-0.2-0.8-0.6-0.8-1c0-0.3,0.5-0.7,0.8-0.9
		c0.2-0.1,0.5,0,0.8,0c12.4,0,24.9,0,37.3,0c0.2,0,0.4,0,0.6,0c0.7,0,1.1,0.3,1.1,1c0,0.7-0.4,1-1.1,1c-0.3,0-0.6,0-0.9,0
		C79.8,52.4,73.7,52.4,67.5,52.4z"/>
	<path class="st1" d="M80.5,37.8c5.4,0,10.8,0,16.1,0c0.3,0,0.6,0,0.9,0c0.7,0,1.4,0.1,1.4,1c0,0.8-0.7,1-1.4,1
		c-11.4,0-22.8,0-34.2,0c-0.7,0-1.4-0.2-1.4-1c0-0.9,0.7-1,1.5-1C69,37.8,74.8,37.8,80.5,37.8z"/>
	<path class="st1" d="M52.9,39.8c-1.4,0-2.8,0-4.2,0c-0.7,0-1.3-0.2-1.3-1c0-0.8,0.5-1,1.2-1c3,0,5.9,0,8.9,0c0.7,0,1.3,0.3,1.3,1
		c0,0.7-0.6,1-1.3,1C55.9,39.8,54.4,39.8,52.9,39.8z"/>
	<path class="st1" d="M66.8,80.3c0.2-0.2,0.5-0.7,0.9-0.8c0.6-0.2,1,0.3,1.1,1c0.1,2.3,3,3.4,5,2c0.9-0.6,1.2-1.4,1.1-2.4
		c-0.1-1-0.7-1.5-1.5-1.8c-1-0.3-2.1-0.5-3.1-0.8c-2.3-0.6-3.2-1.6-3.3-3.5c-0.2-2.3,0.7-4,2.8-4.9c0.8-0.3,1.3-0.6,1.2-1.6
		c0-0.6,0.3-1,1-1c0.7,0,1.1,0.5,1,1.1c-0.1,0.9,0.4,1.2,1.1,1.5c1.7,0.7,2.7,1.9,2.9,3.8c0.1,0.7-0.1,1.2-0.8,1.3
		c-0.7,0.1-1.1-0.3-1.2-1c-0.5-2.4-3.4-3.4-5.3-1.7c-1.3,1.2-1.1,3.1,0.6,3.8c0.9,0.4,1.9,0.5,2.9,0.8c2.5,0.6,3.6,1.7,3.8,3.7
		c0.2,2.2-0.9,4-3.2,4.9C73.2,85,73,85.3,73,85.9c0.1,0.7-0.2,1.4-1,1.4c-0.8,0-1.1-0.6-1.1-1.3c0-0.6-0.2-0.9-0.8-1.1
		C68.1,84.2,66.8,82.5,66.8,80.3z"/>
</g>
</svg>
