<?xml version="1.0" encoding="utf-8"?>
<!-- Generator: Adobe Illustrator 24.3.0, SVG Export Plug-In . SVG Version: 6.00 Build 0)  -->
<svg version="1.1" id="Layer_1" xmlns="http://www.w3.org/2000/svg" xmlns:xlink="http://www.w3.org/1999/xlink" x="0px" y="0px"
	 viewBox="0 0 166.9 121.1" style="enable-background:new 0 0 166.9 121.1;" xml:space="preserve">
<style type="text/css">
	.st0{fill:#15253B;}
	.st1{fill:#E0AD6B;}
</style>
<path class="st0" d="M23.2,119.3h120.5c12,0,21.7-9.7,21.7-21.7v0c0-12-9.7-21.7-21.7-21.7H23.2c-12,0-21.7,9.7-21.7,21.7v0
	C1.5,109.6,11.2,119.3,23.2,119.3z"/>
<path class="st1" d="M113.7,25.2h3.5v-1.8h-3.5V25.2z M53.2,23.4h-3.5v1.9h3.5V23.4z M120.2,25.3c2.4,0,4.7,0,7,0c0.7,0,1-0.4,1-1
	c0-0.6-0.4-0.9-1-0.9c-1.3,0-2.6,0-3.9,0c-1.1,0-2.1,0-3.2,0V25.3z M46.7,23.3c-2.4,0-4.8,0-7.1,0c-0.6,0-1,0.4-0.9,1
	c0.1,0.4,0.5,0.9,0.8,0.9c2.4,0.1,4.7,0,7.2,0V23.3z M66,23.4h-9.8v1.8H66V23.4z M110.7,23.4H98.8v1.8h11.9V23.4z M115.2,57.3
	c0-1.6-1.3-2.9-2.9-2.9c-1.6,0-3,1.3-3,2.9c0,1.6,1.3,2.9,2.9,3C113.8,60.2,115.1,58.9,115.2,57.3 M54.7,60.2c1.6,0,3-1.4,3-3
	c0-1.6-1.4-2.9-2.9-2.9c-1.6,0-3,1.3-2.9,2.9C51.8,58.9,53.1,60.2,54.7,60.2 M95.8,25.2c0-2.7,0-5.3,0-8c0-1.2-1-2.1-2.2-2.2
	c-1.1,0-2.2,0.8-2.3,1.9c-0.1,2.7,0,5.4,0,8.2H95.8z M68.9,23c0,1.3,0,2.6,0,3.9c0,1.4,1,2.4,2.2,2.4c1.3,0,2.3-0.9,2.3-2.4
	c0-2.5,0-5.1,0-7.6c0-1.5-1-2.4-2.3-2.4c-1.3,0-2.2,1-2.2,2.5C68.9,20.5,68.9,21.8,68.9,23 M80.9,23.2c0-1.8,0-3.7,0-5.5
	c0-1.5-0.9-2.5-2.2-2.5c-1.3,0-2.3,1-2.3,2.4c0,3.7,0,7.4,0,11c0,1.5,0.9,2.5,2.3,2.5c1.3,0,2.3-1.1,2.3-2.6
	C81,26.7,80.9,24.9,80.9,23.2 M87.2,31.8c-0.3-0.8-0.5-1.5-0.7-2.2c-0.5-2.1-0.2-2.9,1.6-4.2c0.2-0.1,0.3-0.4,0.3-0.6
	c0-2.9,0-5.8,0-8.7c0-1.4-1-2.3-2.3-2.3c-1.2,0-2.2,1-2.2,2.3c0,4.5,0,9.1,0,13.6C83.9,31.6,85.5,32.5,87.2,31.8 M95.5,63.2H71.4
	v6.6h24.1V63.2z M37,85.6c0.5,3,3.3,5.3,6.5,5.3c7.5,0,15,0.1,22.5,0c2.9,0,5-1.6,6.2-4.3c0.1-0.3,0.2-0.6,0.3-1H37z M66.7,82.6
	c-0.2-0.5-0.4-0.8-0.5-1.1c-3.1-5.8-6.2-11.5-9.3-17.3c-0.5-0.9-0.9-1.6-2.1-1.2c-0.2,0.1-0.5,0.1-0.8,0c-0.6-0.2-0.9,0.1-1.1,0.6
	c-3.3,6.1-6.6,12.2-9.9,18.3c-0.1,0.2-0.2,0.4-0.3,0.7H66.7z M106.9,28.2c0.1,1.8,0.1,3.5,0.2,5.3c0,0.7,0,1.5,0,2.2
	c0.1,4-1.1,7.7-3.5,10.9c-1.6,2.1-3.4,4-5.1,5.9c-1.9,2.1-2.8,4.6-2.7,7.5c2.7,0.4,2.7,0.4,2.7,3.1v15.1v1c0.1,0,0.1,0,0.2,0
	c3.2-5.9,6.4-11.8,9.6-17.7c-1.6-1.7-2.2-3.6-1.7-5.8c0.6-2.2,2.1-3.6,4.1-4.2V28.2H106.9z M110.8,63c-3.5,6.5-7,13-10.6,19.7h13.4
	v2.9h-19c0.4,2.9,3.2,5.3,6.3,5.3c7.6,0.1,15.1,0.1,22.7,0c3.1,0,5.9-2.4,6.3-5.3h-0.9c-2.4,0-4.8,0-7.2,0c-1.2,0-1.9-0.6-1.9-1.5
	c0-0.9,0.7-1.4,1.8-1.4c0.8,0,1.6,0,2.5,0c-0.2-0.5-0.4-0.8-0.5-1c-3.1-5.7-6.2-11.5-9.3-17.2c-0.5-1-1-1.7-2.3-1.4
	C111.8,63.2,111.3,63,110.8,63 M71.4,72.8v9.9c0.8,0,1.5,0,2.3,0c1.3,0,1.9,0.5,1.8,1.8c-0.1,2.9-1.3,5.2-3.5,7.1
	c-0.5,0.4-0.7,0.8-0.7,1.5c0,4.4,0,8.8,0,13.2c0,0.3,0,0.6,0,1h24.1c0-0.2,0.1-0.4,0.1-0.6c0-4.6,0-9.2,0-13.9
	c0-0.4-0.3-0.8-0.6-1.1c-2.2-1.9-3.4-4.3-3.5-7.2c0-1.3,0.5-1.8,1.8-1.8c0.8,0,1.5,0,2.3,0v-9.9H71.4z M92.8,60.1
	c0-0.4,0.1-0.7,0.1-1c0.2-3.6,1.4-6.6,4-9.1c0.9-0.8,1.7-1.7,2.5-2.6c2.3-2.5,4.2-5.3,4.6-8.8c0.3-2.6,0.2-5.2,0.2-7.7
	c0-1.9-0.9-2.7-2.7-2.7c-3.7,0-7.5,0-11.2,0c-0.3,0-0.6,0-0.9,0c0.1,2.3,1.8,4.3,4.1,4.4c1.4,0.1,2.8,0,4.2,0.1
	c1.1,0,1.6,0.5,1.6,1.6c0,0.7,0,1.4,0,2c0,1.6-0.3,2-1.9,2.1c-5.2,0.4-9.1,4.3-9.3,9.5c-0.1,1.2-0.6,1.8-1.5,1.7
	c-0.9,0-1.4-0.7-1.4-1.9c0.2-5.4,3.9-10.2,9.1-11.7c0.4-0.1,0.8-0.2,1.2-0.4c-2.3,0-4.4-0.3-6.2-1.8c-1.2,0.8-2.5,1.2-3.9,1
	c-1.4-0.2-2.6-1-3.5-2.1c-3,1.8-4.9,1.4-7.9-1.5c-1.6,1-3.3,1-5.1,0.4c0,1.2,0,2.2,0,3.2c0,0.9-0.7,1.5-1.5,1.5
	c-0.8,0-1.4-0.6-1.4-1.4c0-1.2,0-2.4,0-3.6c0-1.1,0-2.1,0-3.2h-9.8c0,7.8,0,15.5,0,23.3c4.5,1.6,5.7,6.6,2.5,10.1
	c3.2,5.9,6.3,11.8,9.5,17.6c0.1,0,0.2,0,0.2,0v-1V62.8c0-2.3,0.1-2.5,2.4-2.6c0.1,0,0.1-0.1,0.2-0.2c0-0.5-0.1-1.1-0.1-1.7
	c-0.3-2.2-1.3-4.1-2.5-5.9c-1.6-2.6-2.4-5.4-2.5-8.4c0-1.2,0.5-1.8,1.4-1.8c1,0,1.5,0.6,1.5,1.8c0.1,2.3,0.6,4.6,1.8,6.6
	c1.8,3,3.3,6,3.2,9.7H92.8z M34.8,110.2c-0.7-0.5-1.2-1-0.9-1.9c0.3-0.9,1.1-1,1.9-1c10.4,0,20.9,0,31.3,0h1.2V93.8
	c-8.2,0-16.3,0-24.5,0c-0.6,0-1.3-0.1-1.9-0.2c-4.4-0.6-7.9-4.7-8.1-9.1c0-1.3,0.5-1.9,1.8-1.9c1,0,1.9,0.1,2.9,0
	c0.4,0,0.9-0.3,1-0.6c3.7-6.8,7.4-13.6,11-20.4c-3-4.6-2.1-8.1,2.5-10.1V28.3c-1.2,0-2.3,0-3.4,0c-0.4,1.8-0.7,2.2-1.7,2.1
	c-0.9,0-1.2-0.5-1.5-2.2c-2.3,0-4.6,0-6.8,0c-2.8,0-4.5-2.2-3.8-5c0.4-1.7,1.7-2.8,3.5-2.8c2,0,4.1,0,6.1,0c0.3,0,0.7,0,1.1,0
	c0.2-1.2-0.3-2.9,1.6-2.8c1.8,0.1,1.2,1.7,1.4,2.8h3.5c0.2-1.1-0.4-2.9,1.6-2.8c1.8,0.1,1.2,1.6,1.4,2.8H66
	c-0.2-2.2,0.3-4.2,2.2-5.5c1.9-1.3,3.9-1.2,5.8-0.1c2-2.8,4.8-3.3,7.7-1.6c2.3-2.7,5.9-3.1,8.6,0c1.2-0.7,2.5-1.2,3.9-0.9
	c2.5,0.4,4.3,2.4,4.4,4.9c0,1,0,2.1,0,3.2h12c0.2-1.1-0.4-2.8,1.5-2.8c1.8,0,1.3,1.6,1.5,2.8h3.5c0.3-1.1-0.4-2.9,1.7-2.8
	c1.7,0.1,1.2,1.7,1.4,2.8c1,0,2,0,3,0c1.4,0,2.7,0,4.1,0c2.3,0,3.8,1.6,3.8,3.9c0,2.3-1.5,3.8-3.8,3.9c-2.3,0-4.6,0-6.9,0
	c-0.4,1.8-0.7,2.2-1.7,2.2c-0.9,0-1.2-0.4-1.5-2.1h-3.4v23.3c4.8,1.7,5.5,6.9,2.5,10c0.1,0.2,0.2,0.5,0.4,0.7
	c3.5,6.5,7.1,13.1,10.6,19.6c0.3,0.6,0.6,0.9,1.3,0.8c0.8-0.1,1.7,0,2.5,0c0.9-0.1,1.6,0.2,2.1,0.9v1.7c0,0.1-0.1,0.2-0.1,0.3
	c-1.5,5.8-4.8,8.2-10.7,8.2c-7.9,0-15.8,0-23.7,0v13.4h1.2c10.4,0,20.9,0,31.3,0c0.9,0,1.6,0.2,2,1v1.9
	C100.3,110.2,67.6,110.2,34.8,110.2"/>
</svg>
