<?xml version="1.0" encoding="utf-8"?>
<!-- Generator: Adobe Illustrator 24.3.0, SVG Export Plug-In . SVG Version: 6.00 Build 0)  -->
<svg version="1.1" id="Layer_1" xmlns="http://www.w3.org/2000/svg" xmlns:xlink="http://www.w3.org/1999/xlink" x="0px" y="0px"
	 viewBox="0 0 166.9 121.1" style="enable-background:new 0 0 166.9 121.1;" xml:space="preserve">
<style type="text/css">
	.st0{fill:#15253B;}
	.st1{fill:#E0AD6B;}
</style>
<path class="st0" d="M23.2,119.3h120.5c12,0,21.7-9.7,21.7-21.7v0c0-12-9.7-21.7-21.7-21.7H23.2c-12,0-21.7,9.7-21.7,21.7v0
	C1.5,109.6,11.2,119.3,23.2,119.3z"/>
<g>
	<path class="st1" d="M130,55.3c0-1.4-1.2-2.6-2.6-2.5c-1.4,0-2.6,1.2-2.6,2.6c0,1.4,1.2,2.5,2.6,2.5C128.9,57.8,130,56.7,130,55.3
		 M130,37c0-1.4-1.1-2.6-2.6-2.5c-1.4,0-2.6,1.2-2.6,2.6c0,1.4,1.2,2.6,2.6,2.6C128.9,39.6,130,38.5,130,37 M127.5,71
		c-1.4,0-2.6,1.2-2.6,2.6c0,1.4,1.2,2.6,2.6,2.6c1.4,0,2.6-1.1,2.6-2.6C130,72.2,128.9,71,127.5,71 M39.5,34.5
		c-1.4,0-2.6,1.1-2.6,2.6c0,1.4,1.2,2.6,2.6,2.6c1.4,0,2.6-1.2,2.6-2.6C42.1,35.7,40.9,34.5,39.5,34.5 M39.4,76.1
		c1.4,0,2.6-1.1,2.7-2.5c0-1.4-1.1-2.6-2.6-2.6c-1.4,0-2.6,1.1-2.6,2.5C36.9,75,38,76.1,39.4,76.1 M39.4,57.9c1.4,0,2.6-1.1,2.6-2.5
		c0-1.4-1.2-2.6-2.6-2.6c-1.4,0-2.6,1.1-2.6,2.5C36.9,56.7,38,57.9,39.4,57.9 M89.4,85.6h-1.3H58.5c-1.5,0-2.9,0-4.4,0
		c-0.8,0-1.2,0.2-1.1,1.1c0.1,1.2,0.1,2.4,0,3.6c-0.1,1,0.3,1.2,1.3,1.2c11.4,0,22.8,0,34.2,0h1V85.6z M83.4,25H89
		c7.9,0,15.8,0,23.7,0c1,0,1.3-0.3,1.2-1.2c-0.1-1.1,0-2.2,0-3.3c0-1.5,0-1.5-1.5-1.5c-15.9,0-31.9,0-47.8,0c-3.4,0-6.9,0-10.3,0
		c-1.1,0-1.4,0.3-1.3,1.3c0.1,1.1,0.1,2.3,0,3.4c-0.1,1,0.3,1.2,1.3,1.2C64,25,73.7,25,83.4,25 M105.9,75.3c-7.5,0-13.6,6-13.6,13.4
		c0,7.4,6.1,13.4,13.6,13.4c7.4,0,13.5-6,13.5-13.4C119.4,81.4,113.3,75.3,105.9,75.3 M106.5,71.9V28.1H60.4v54.5
		c0.3,0,0.5,0.1,0.7,0.1c9.6,0,19.1,0,28.7,0c0.7,0,0.9-0.4,1.1-0.9c1.9-3.9,4.8-6.8,8.9-8.3C101.8,72.8,104.1,72.5,106.5,71.9
		 M109.6,56.9v7.7c0.4,0,0.8,0.1,1.1,0.1c2.7,0,5.5,0,8.2,0c1.1,0,1.9,0.3,2.6,1.1c0.8,0.9,1.7,1.7,2.6,2.6c0.4,0.4,0.7,0.4,1.2,0.2
		c3.1-1.2,6.5,0.4,7.4,3.5c1,3.1-0.9,6.3-4.1,7.1c-3.1,0.7-6.2-1.3-6.7-4.5c-0.1-0.9,0.1-2,0.3-2.9c0.2-0.6,0-0.8-0.3-1.3
		c-1.7-2.2-3.8-3.1-6.6-2.8c-1.9,0.2-3.8,0-5.9,0c0,1.7,0,3.2,0,4.8c0,0.2,0.5,0.5,0.8,0.6c6.4,2,10.3,6.2,11.7,12.7
		c2,9.2-5,18.5-14.5,19.3c-7.4,0.7-13.8-3-16.9-9.7c-0.3-0.7-0.8-0.8-1.4-0.8c-11.7,0-23.4,0-35.1,0c-3.1,0-4.2-1.2-4.2-4.2
		c0-1.3,0-2.6,0-3.8c0-2.6,1.3-3.8,3.9-3.8c1.1,0,2.2,0,3.4,0V67.5c-2.4,0-4.8,0.1-7.2,0c-1.8-0.1-3.1,0.3-4.2,1.8
		c-0.2,0.2-0.4,0.4-0.6,0.6c-0.8,0.6-0.9,1.2-0.6,2.2c0.9,2.4-0.3,5-2.5,6.3c-2.2,1.3-5.1,0.9-6.9-1c-1.8-1.8-2.1-4.7-0.7-6.8
		c1.4-2.1,4.1-3.2,6.5-2.3c0.9,0.3,1.4,0.1,1.9-0.5c0.4-0.5,1-0.9,1.4-1.4c1.2-1.7,2.8-2.1,4.9-2c2.6,0.2,5.2,0,7.9,0v-7.7
		c-0.3,0-0.6-0.1-0.9-0.1c-3.5,0-7,0-10.6,0c-0.6,0-0.9,0.1-1.2,0.7c-1.2,2.5-3.9,3.8-6.5,3.2c-2.7-0.7-4.4-3-4.2-5.8
		c0.1-2.6,2.2-4.7,4.9-5.1c2.3-0.3,4.6,1,5.8,3.3c0.2,0.3,0.6,0.7,1,0.7c3.7,0,7.5,0,11.2,0c0.1,0,0.3,0,0.5-0.1v-7.7h-3.6
		c-2,0-4,0.1-6,0c-0.6,0-1.4-0.4-1.9-0.8c-1-0.8-1.8-1.7-2.7-2.6c-0.5-0.6-1-0.7-1.7-0.4c-2.9,1.1-6.2-0.6-7.2-3.5
		c-1-3,0.8-6.2,3.9-7c2.1-0.5,4-0.1,5.5,1.5c1.5,1.6,2,3.5,1.2,5.6c-0.3,0.8,0,1.1,0.4,1.7c1.6,2.1,3.6,2.9,6.2,2.6
		c1.9-0.2,3.8-0.1,5.7-0.1c0.1,0,0.1-0.1,0.2-0.1V28c-1.3,0-2.5,0-3.7,0c-2.2,0-3.6-1.3-3.6-3.5c0-1.6,0-3.2,0-4.8
		c0-2.2,1.4-3.6,3.7-3.6c3.5,0,7,0,10.5,0c16.2,0,32.5,0,48.7,0c1.2,0,2.5,0.1,3.2,1.1c0.5,0.6,0.8,1.5,0.9,2.3c0.1,1.7,0.1,3.3,0,5
		c-0.1,2.1-1.5,3.4-3.6,3.4c-1.2,0-2.4,0-3.7,0v15c0.3,0,0.5,0.1,0.8,0.1c2.7,0,5.3,0,8,0c0.4,0,0.9-0.3,1.3-0.5
		c0.3-0.2,0.5-0.6,0.9-0.8c1.3-1,2-2,1.4-4c-0.8-2.7,1.6-5.7,4.4-6.2c3.1-0.5,6,1.4,6.6,4.4c0.6,3-1.4,6-4.4,6.4
		c-1.1,0.2-2.2-0.2-3.3-0.3c-0.4,0-0.8,0-1.1,0.2c-1,0.9-1.9,2-3,2.9c-0.5,0.4-1.2,0.7-1.9,0.8c-3.1,0.1-6.2,0-9.4,0
		c-0.1,0-0.1,0-0.3,0.1v7.6c0.3,0,0.5,0.1,0.8,0.1c3.6,0,7.1,0,10.7,0c0.6,0,0.9-0.1,1.2-0.7c1.1-2.5,3.7-3.7,6.4-3.2
		c2.5,0.5,4.3,2.8,4.3,5.4c0,2.6-1.8,4.8-4.3,5.4c-2.6,0.6-5.2-0.7-6.4-3.2c-0.2-0.3-0.6-0.7-0.9-0.7c-3.7-0.1-7.5,0-11.2,0
		C110,56.8,109.9,56.8,109.6,56.9"/>
	<path class="st1" d="M91.5,53.3c0.6,2,2.6,3.4,4.7,3.4c2.1,0,4-1.5,4.5-3.4H91.5z M66.3,53.3c0.5,2,2.5,3.4,4.6,3.3
		c2.1,0,4-1.4,4.5-3.3H66.3z M100.1,50.3c-1.4-2.8-2.7-5.4-4-8.1c-1.4,2.8-2.7,5.4-4,8.1H100.1z M70.8,42.2c-1.4,2.8-2.7,5.4-4,8.1
		h8C73.5,47.5,72.2,44.9,70.8,42.2 M81.9,40.3h-8.5c0.2,0.4,0.3,0.8,0.5,1.1c1.5,3,3,5.9,4.4,8.9c0.4,0.8,0.6,1.9,0.4,2.7
		c-0.5,3.8-4.2,6.7-8.1,6.6c-4.1-0.2-7.4-3.3-7.6-7.2c0-0.6,0.1-1.2,0.3-1.7c2-4,4-8,6-12c0.4-0.9,1.1-1.3,2.1-1.3
		c8.1,0,16.2,0,24.2,0c1,0,1.6,0.4,2.1,1.3c2,4,4,8,5.9,12c0.3,0.7,0.4,1.6,0.3,2.4c-0.5,3.8-4.1,6.7-8,6.6
		c-4.1-0.1-7.5-3.3-7.7-7.2c0-0.6,0.1-1.3,0.4-1.8c1.5-3,3-6.1,4.5-9.1c0.2-0.3,0.3-0.7,0.5-1.1H85v24.5h5.1c0.3,0,0.6,0,0.9,0
		c1,0.1,1.6,0.6,1.6,1.5c0,0.9-0.6,1.4-1.5,1.5c-5.1,0-10.1,0-15.2,0c-0.9,0-1.5-0.6-1.5-1.5c0-0.9,0.6-1.4,1.5-1.4c2,0,3.9,0,6,0
		V40.3z"/>
	<path class="st1" d="M83.4,70.4c3.3,0,6.5,0,9.8,0c1.3,0,2,0.5,2,1.4c0,1-0.7,1.5-2,1.5c-6.5,0-13,0-19.6,0c-1.2,0-1.9-0.6-1.9-1.5
		c0-0.9,0.7-1.5,1.9-1.5C76.9,70.4,80.2,70.4,83.4,70.4"/>
	<path class="st1" d="M115.5,84.5c-0.3,0.5-0.5,1-0.8,1.3c-3,3-6,6-9.1,9c-0.9,0.8-1.6,0.8-2.4,0c-1.7-1.6-3.3-3.2-5-4.8
		c-0.8-0.8-0.8-1.6-0.2-2.3c0.6-0.6,1.5-0.6,2.3,0.1c1,1,2,2,3.1,3c1,1,1,1,2.1,0c2.4-2.4,4.7-4.7,7.2-7c0.4-0.4,1.2-0.5,1.8-0.4
		C114.8,83.4,115.1,84,115.5,84.5"/>
</g>
</svg>
