<?xml version="1.0" encoding="utf-8"?>
<!-- Generator: Adobe Illustrator 24.3.0, SVG Export Plug-In . SVG Version: 6.00 Build 0)  -->
<svg version="1.1" id="Layer_1" xmlns="http://www.w3.org/2000/svg" xmlns:xlink="http://www.w3.org/1999/xlink" x="0px" y="0px"
	 viewBox="0 0 166.9 121.1" style="enable-background:new 0 0 166.9 121.1;" xml:space="preserve">
<style type="text/css">
	.st0{fill:#15253B;}
	.st1{fill:#E0AD6B;}
</style>
<path class="st0" d="M23.2,119.3h120.5c12,0,21.7-9.7,21.7-21.7v0c0-12-9.7-21.7-21.7-21.7H23.2c-12,0-21.7,9.7-21.7,21.7v0
	C1.5,109.6,11.2,119.3,23.2,119.3z"/>
<g>
	<path class="st1" d="M94.4,17.3c0,2.7-0.2,5.3,0.1,7.8c0.1,1.6,1.8,2.7,3.5,2.7c2.5,0,5,0,7.5,0h1.4
		C102.5,24.2,98.5,20.8,94.4,17.3 M128.2,78c0.3-1.2-0.4-1.9-1.7-2.6c-4.6-2.4-9.2-4.9-13.7-7.4c-0.5-0.3-0.9-0.3-1.4,0
		c-4.8,2.6-9.5,5.2-14.3,7.7c-0.8,0.4-1.1,1-1.1,1.9c0,6.3,2,12,5.2,17.4c2.4,4.1,5.4,7.8,9.4,10.5c1.1,0.7,1.9,0.7,2.9,0
		c3.8-2.5,6.6-5.8,8.9-9.6C125.8,90.5,128,84.7,128.2,78 M97,95.6c-0.3-0.5-0.4-0.9-0.6-1.2c-2.8-5.5-4.4-11.3-4.3-17.5
		c0.1-1.9,0.8-3.3,2.5-4.3c0.5-0.3,1-0.6,1.5-0.8c4.4-2.4,8.7-4.7,13.1-7.1c0.7-0.4,0.9-0.7,0.9-1.5c0-10.1,0-20.3,0-30.4v-1.1
		c-0.5,0-0.8,0-1.2,0c-3.8,0-7.7,0.1-11.5-0.1c-3.6-0.1-6.7-3-7-6.6c-0.2-3-0.1-5.9-0.2-8.9c0-0.4,0-0.8,0-1.3
		c-0.4,0-0.6-0.1-0.9-0.1c-12.5,0-25.1,0-37.6,0c-1.9,0-3.1,1.1-3.1,3.1c0,24.9,0,49.7,0,74.6c0,2,1.1,3.1,3.1,3.1c3,0,5.9,0,8.9,0
		c1.5,0,2.3,0.8,2.3,2c0,1.2-0.9,1.9-2.3,1.9c-3,0-6.1,0-9.1,0c-0.5,0-1,0-1.5-0.1c-3.3-0.7-5.3-3.4-5.3-6.9c0-21.9,0-43.8,0-65.8
		v-1.3c-1.1,0-2.1,0-3,0c-2,0-3.1,1.1-3.1,3.1c0,24.9,0,49.7,0,74.6c0,2,1.1,3.1,3.1,3.1c20.8,0,41.7,0,62.5,0c0.2,0,0.4,0,0.4-0.1
		c-1.7-2.1-3.4-4.2-5.1-6.3c-0.2-0.2-0.7-0.4-1-0.4c-1.7,0-3.4,0-5.1,0c-4.8,0-9.7,0-14.5,0c-1.3,0-2-0.5-2.3-1.5
		c-0.3-1.3,0.7-2.4,2.2-2.4c3.9,0,7.8,0,11.6,0H97z M112.9,110.2H40.5c-4.5-1.2-5.7-4.4-5.7-8.1c0.1-24.4,0-48.9,0-73.3
		c0-4.4,2.7-7.2,7.2-7.2c1,0,1.9,0,2.9,0c0-1.3,0-2.5,0-3.6c0-4.2,2.8-7,7-7c13.3,0,26.5,0,39.8,0c0.9,0,1.5,0.2,2.2,0.8
		c6.3,5.4,12.7,10.8,19,16.2c0.8,0.7,1.1,1.5,1.1,2.5c0,10.9,0,21.8,0,32.6c0,0.9,0.3,1.3,1.1,1.8c4.6,2.4,9.1,5,13.7,7.4
		c2.3,1.2,3.3,3,3.3,5.5c-0.1,7.3-2.4,13.9-6.2,20.1C122.7,103.1,118.8,107.6,112.9,110.2"/>
	<path class="st1" d="M79.4,59.7c-6.6,0-13.2,0-19.9,0c-0.4,0-0.7,0-1.1,0c-0.9-0.1-1.6-0.8-1.7-1.7c-0.1-0.9,0.4-1.7,1.3-2
		c0.4-0.1,0.8-0.1,1.1-0.1c13.5,0,26.9,0,40.4,0c0.4,0,0.7,0,1,0.1c1,0.3,1.5,1.1,1.4,2c-0.1,0.9-0.7,1.6-1.7,1.7
		c-0.4,0-0.7,0-1.1,0C92.7,59.7,86.1,59.7,79.4,59.7"/>
	<path class="st1" d="M79.5,36.3c6.6,0,13.2,0,19.8,0c0.4,0,0.8,0,1.3,0.1c0.9,0.1,1.5,0.8,1.6,1.7c0.1,0.9-0.4,1.7-1.3,2
		c-0.4,0.1-0.8,0.1-1.2,0.1c-13.4,0-26.8,0-40.2,0c-0.4,0-0.8,0-1.2-0.1c-0.9-0.3-1.4-1.1-1.3-2c0.1-0.9,0.7-1.6,1.6-1.7
		c0.4-0.1,0.8-0.1,1.3-0.1C66.3,36.3,72.9,36.3,79.5,36.3"/>
	<path class="st1" d="M70.7,30.4c-3.9,0-7.7,0-11.6,0c-0.9,0-1.6-0.2-2-1c-0.6-1.1,0-2.4,1.2-2.8c0.4-0.1,0.8-0.1,1.1-0.1
		c7.5,0,15,0,22.5,0c0.2,0,0.5,0,0.7,0c1.2,0.1,2,0.9,2,2c0,1.1-0.8,1.9-2,1.9C78.6,30.4,74.7,30.4,70.7,30.4L70.7,30.4z"/>
	<path class="st1" d="M70.7,79.2c-3.9,0-7.7,0-11.6,0c-0.8,0-1.5-0.2-2-1c-0.7-1.2,0-2.7,1.4-2.9c0.3,0,0.5,0,0.8,0
		c7.6,0,15.3,0,22.9,0c1.4,0,2.1,0.5,2.3,1.6c0.3,1.3-0.7,2.3-2.1,2.3C78.5,79.2,74.6,79.2,70.7,79.2"/>
	<path class="st1" d="M80.4,65.5c2.6,0,5.3,0,7.9,0c1.6,0,2.5,1.5,1.8,2.8c-0.4,0.7-1,1.1-1.8,1.1c-5.3,0-10.5,0-15.8,0
		c-1.2,0-2.1-0.9-2.1-2c0-1.1,0.8-1.9,2.1-1.9C75.2,65.5,77.8,65.5,80.4,65.5"/>
	<path class="st1" d="M65.9,49.9c-2.3,0-4.6,0-6.9,0c-1.3,0-2.2-0.8-2.2-1.9c0-1.2,0.9-2,2.2-2c4.6,0,9.1,0,13.7,0
		c1.4,0,2.3,0.7,2.3,1.9c0,1.2-0.8,1.9-2.3,1.9C70.5,49.9,68.2,49.9,65.9,49.9"/>
	<path class="st1" d="M93.4,49.9c-2.1,0-4.3,0-6.4,0c-1.4,0-2.3-0.7-2.2-2c0-1.2,0.8-1.9,2.3-1.9c4.3,0,8.5,0,12.8,0
		c1.4,0,2.3,0.7,2.3,1.9c0,1.2-0.8,2-2.3,2C97.7,49.9,95.6,49.9,93.4,49.9"/>
	<path class="st1" d="M60.7,65.6c0.7,0,1.4,0,2,0c1,0.1,1.8,0.8,1.8,1.8c0.1,0.9-0.6,1.9-1.6,2c-1.6,0.1-3.2,0.1-4.7,0
		c-1-0.1-1.6-1.1-1.5-2c0.1-0.9,0.8-1.7,1.8-1.7C59.3,65.5,60,65.6,60.7,65.6L60.7,65.6z"/>
	<path class="st1" d="M71.9,97.6c0,1.1-0.8,2-1.9,2c-1.1,0-2-0.9-2-2c0-1,0.9-1.9,1.9-1.9C71,95.6,71.9,96.5,71.9,97.6"/>
	<path class="st1" d="M109.6,87.2c2.3-2.1,4.4-4.1,6.6-6.1c0.3-0.2,0.5-0.5,0.8-0.7c0.8-0.6,1.8-0.5,2.5,0.2
		c0.7,0.7,0.9,1.8,0.3,2.5c-2.8,3-5.7,6-8.6,8.9c-0.6,0.6-1.7,0.5-2.4-0.1c-1.4-1.2-2.7-2.5-4-3.8c-0.7-0.7-0.7-1.9-0.1-2.6
		c0.7-0.8,1.8-0.9,2.7-0.2C108.2,85.8,109,86.6,109.6,87.2"/>
</g>
</svg>
