<?xml version="1.0" encoding="utf-8"?>
<!-- Generator: Adobe Illustrator 24.3.0, SVG Export Plug-In . SVG Version: 6.00 Build 0)  -->
<svg version="1.1" id="Layer_1" xmlns="http://www.w3.org/2000/svg" xmlns:xlink="http://www.w3.org/1999/xlink" x="0px" y="0px"
	 viewBox="0 0 166.9 121.1" style="enable-background:new 0 0 166.9 121.1;" xml:space="preserve">
<style type="text/css">
	.st0{fill:#15253B;}
	.st1{fill:#E0AD6B;}
</style>
<path class="st0" d="M23.2,119.3h120.5c12,0,21.7-9.7,21.7-21.7v0c0-12-9.7-21.7-21.7-21.7H23.2c-12,0-21.7,9.7-21.7,21.7v0
	C1.5,109.6,11.2,119.3,23.2,119.3z"/>
<g>
	<path class="st1" d="M94.7,68.9c-0.8,0.7-1.6,1.4-2.3,2c2.9,2.7,5.9,5.5,8.6,8c0.8-0.7,1.6-1.4,2.3-2
		C100.5,74.2,97.5,71.5,94.7,68.9 M110.7,53.9c-0.8,0.7-1.6,1.5-2.4,2.1c2.9,2.7,5.9,5.5,8.7,8.1c0.7-0.7,1.5-1.5,2.3-2.2
		C116.5,59.3,113.6,56.6,110.7,53.9 M110.3,71.9c5.8,5.4,11.5,10.7,17.2,16c0.4-0.4,1-0.9,1.4-1.3c-5.7-5.3-11.4-10.6-17.2-16
		C111.3,71,110.8,71.5,110.3,71.9 M107.5,59.9c-2.9,2.7-5.9,5.4-8.7,8c1.8,1.7,3.7,3.4,5.5,5.1c2.9-2.7,5.8-5.4,8.7-8
		C111.2,63.3,109.3,61.6,107.5,59.9 M46.7,32.3c0-3.5,0-6.8,0-10.2c0-2.6-2.1-4.6-4.8-4.6c-2.7,0-4.8,2-4.8,4.7c0,3.2,0,6.3,0,9.5
		c0,0.2,0,0.5,0.1,0.7H46.7z M61.1,103.6h1c16.6,0,33.2,0,49.8,0c3.6,0,5.8-2.5,5.1-5.9H62.6C62.8,99.8,62.5,101.8,61.1,103.6
		 M105,57.5c-1.1-1.4-1.1-1.8,0.3-3c1.2-1.2,2.5-2.3,3.8-3.5c0.4-0.4,1-0.7,1.6-1.1v-0.7c0-8,0-16,0-24c0-4.6-3.4-7.8-8.4-7.8
		c-17.7,0-35.3,0-53,0c-0.3,0-0.6,0-1,0c1.5,1.9,1.6,3.9,1.6,6c0,24.9,0,49.8,0,74.7c0,0.3,0,0.7,0,1c0.1,2.4,2.2,4.3,4.8,4.3
		c2.6,0,4.7-1.9,4.8-4.3c0-0.8,0-1.6,0-2.4c0-1.8,0.4-2.2,2.3-2.2c15.9,0,31.7,0,47.6,0h1.2c0-0.2,0.1-0.3,0.1-0.4
		c0-5.7,0-11.3,0-17c0-0.2,0-0.5-0.1-0.6c-0.8-0.9-1.7-1.7-2.5-2.4c-0.6,0.4-1,0.8-1.4,1.1c1.2,1.4,1.1,1.8-0.2,3.1
		c-1.3,1.2-2.6,2.5-4,3.7c-1,0.9-1.8,0.9-2.8,0c-3.6-3.3-7.2-6.6-10.7-10c-0.9-0.9-0.9-1.6,0-2.5c1.3-1.2,2.6-2.4,3.9-3.6
		c1.5-1.4,1.8-1.4,3.4-0.4C99.1,63,102.1,60.3,105,57.5 M46.7,35.3c-3.6,0-7.1,0-10.6,0c-0.3,0-0.7,0-1-0.1
		c-0.8-0.2-1.2-0.7-1.2-1.5c0-4.1-0.1-8.2,0-12.3c0.1-3.7,3.5-6.8,7.5-7c0.3,0,0.6,0,0.9,0c20,0,40,0,60,0c5.6,0,10,3.1,11.3,8
		c0.2,0.9,0.3,2,0.3,2.9c0,8.7,0,17.5,0,26.2c0,0.6,0.2,1,0.6,1.5c2.7,2.4,5.3,4.9,7.9,7.3c1.4,1.3,1.4,1.9,0,3.2
		c-1.2,1.1-2.4,2.2-3.6,3.3c-1.4,1.3-1.8,1.3-3.4,0.3c-0.4,0.4-0.8,0.7-1.2,1.2c0.2,0.2,0.4,0.4,0.7,0.7c5.7,5.3,11.4,10.6,17.2,16
		c1.3,1.2,1.3,1.8,0,3c-1,1-2.1,1.9-3.1,2.9c-1.2,1.1-1.9,1.1-3,0c-3.7-3.5-7.4-6.9-11.2-10.4c-0.2-0.2-0.5-0.4-0.9-0.8v14.9
		c1.4,0,2.8,0,4.3,0c1.6,0,2.1,0.5,2.1,2c0,1.2,0.1,2.5-0.1,3.7c-0.7,3.7-3.9,6.2-7.9,6.2c-6,0-11.9,0-17.9,0c-13,0-26,0-39,0
		c-5.3,0-8.7-3.1-8.7-8.1c0-20.7,0-41.3,0-62V35.3z"/>
	<path class="st1" d="M67.5,88.8c6.2,0,11.2-4.7,11.2-10.4c0-5.7-5-10.4-11.2-10.4c-6.2,0-11.2,4.7-11.2,10.4
		C56.3,84.1,61.3,88.8,67.5,88.8 M67.5,65c7.9,0,14.3,6,14.3,13.4c0,7.4-6.5,13.4-14.5,13.4c-7.9,0-14.4-6.1-14.3-13.5
		C53.1,70.9,59.6,65,67.5,65"/>
	<rect x="54.7" y="23.5" class="st1" width="52.7" height="2.9"/>
	<rect x="54.7" y="29.4" class="st1" width="52.7" height="2.9"/>
	<rect x="54.7" y="35.4" class="st1" width="52.7" height="2.9"/>
	<rect x="54.7" y="41.3" class="st1" width="52.7" height="2.9"/>
	<rect x="54.8" y="47.2" class="st1" width="52.7" height="2.9"/>
	<rect x="54.7" y="53.2" class="st1" width="46.2" height="2.9"/>
	<rect x="54.7" y="59.1" class="st1" width="43.1" height="2.9"/>
	<path class="st1" d="M104.2,88.8v2.9c-2.4,0-4.8,0.1-7.2,0c-1.9-0.1-3.4-1.1-4.5-2.5c-1.2,0.6-2.2,1.4-3.4,1.8
		c-1.2,0.5-2.5,0.6-3.9,1v-3.1c0.6-0.1,1.3-0.2,1.9-0.3c1.9-0.5,3.4-1.6,4.4-3.1c0.4-0.7,1-1.2,1.9-1c1,0.2,1.2,0.9,1.3,1.7
		c0.1,1.6,1.5,2.7,3.3,2.7C100,88.8,102.1,88.8,104.2,88.8"/>
	<path class="st1" d="M72.3,78.3c0-2.4-2.2-4.4-4.8-4.4c-2.7,0-4.8,2-4.8,4.5c0,2.4,2.2,4.4,4.8,4.4C70.1,82.8,72.3,80.8,72.3,78.3
		 M75.5,78.4c0,4.1-3.6,7.4-8.1,7.4c-4.4,0-8-3.4-7.9-7.5c0-4,3.6-7.3,8-7.3C71.9,71,75.5,74.3,75.5,78.4"/>
</g>
</svg>
