<?xml version="1.0" encoding="utf-8"?>
<!-- Generator: Adobe Illustrator 24.3.0, SVG Export Plug-In . SVG Version: 6.00 Build 0)  -->
<svg version="1.1" id="Layer_1" xmlns="http://www.w3.org/2000/svg" xmlns:xlink="http://www.w3.org/1999/xlink" x="0px" y="0px"
	 viewBox="0 0 166.9 121.1" style="enable-background:new 0 0 166.9 121.1;" xml:space="preserve">
<style type="text/css">
	.st0{fill:#15253B;}
	.st1{fill:#E0AD6B;}
</style>
<path class="st0" d="M23.2,119.3h120.5c12,0,21.7-9.7,21.7-21.7v0c0-12-9.7-21.7-21.7-21.7H23.2c-12,0-21.7,9.7-21.7,21.7v0
	C1.5,109.6,11.2,119.3,23.2,119.3z"/>
<g>
	<path class="st1" d="M82.3,10.9c17,0.5,32.2,3.1,46.5,10c1.8,0.9,2.5,1.9,2.4,4c-2.1,35.3-16.8,63.7-45.7,84.5c-1.4,1-2.4,1.1-4,0
		c-25.4-18-39.9-42.6-44.7-73.2c-0.6-3.6-0.6-7.4-1.1-11.1c-0.3-2.4,0.7-3.5,2.8-4.4c9.9-4.7,20.3-7.4,31.1-8.7
		C74.3,11.5,78.9,11.2,82.3,10.9z M126.1,31.2c0-0.7-0.1-1.3,0-1.8c0.5-2.4-0.4-3.8-2.7-4.6c-5.5-1.8-10.8-4.3-16.4-5.6
		c-21.7-5.3-42.9-3.5-63.5,5.6c-2.2,1-2.9,2.2-2.7,4.6c2.1,29.6,14,54.1,37.8,72.4c6.1,4.7,3.8,4.6,10-0.1
		C111.9,83.9,123.5,59.9,126.1,31.2z"/>
	<path class="st1" d="M83.5,20.6c12.6,0.3,25,2.5,36.6,8c1.5,0.7,2,1.6,1.9,3.2c-1.7,28.4-13.4,51.3-36.7,68.1c-1.4,1-2.4,1-3.8,0
		C58.5,83.2,46.8,60.4,44.9,32.2c-0.1-2,0.5-3,2.3-3.8C58.7,23.1,70.8,20.9,83.5,20.6z M72.5,46.6c-2.8-0.1-3,1.6-2.9,3.6
		c0.1,7,0,13.9,0,20.9c0,2.7,0.5,3.2,3.2,3.2c7,0,14.1,0,21.1,0c2.9,0,3.3-0.5,3.4-3.2c0-6.9-0.1-13.8,0-20.7c0-2.2-0.4-3.7-3-3.9
		c0-1.9,0-3.6,0-5.3c-0.2-5.9-5-10.7-10.8-10.7c-6,0-10.9,4.6-11.1,10.6C72.5,42.8,72.5,44.5,72.5,46.6z"/>
	<path class="st1" d="M90.7,46.6c-4.8,0-9.6,0-14.5,0c0-2.2-0.2-4.3,0-6.3c0.5-3.7,3.6-6.2,7.3-6.1c3.6,0.1,6.7,2.8,7.1,6.4
		C90.9,42.5,90.7,44.5,90.7,46.6z"/>
	<path class="st1" d="M85.6,65c-1.4,0-2.7,0-4.2,0c0.2-0.9,0.4-1.6,0.4-2.4c0-1.2-0.3-2.5-0.3-3.7c0-0.8,0-1.9,0.5-2.3
		c0.5-0.5,1.7-0.7,2.3-0.4c0.6,0.3,1.4,1.7,1.2,2C84.1,60.5,85.3,62.7,85.6,65z"/>
</g>
<g>
	<path class="st1" d="M144.8,49.4c-0.3,0-0.6,0-0.9,0c0,0-0.1,0-0.1,0c-0.7,0-1.3-0.1-2-0.3c-1.4-0.3-2.7-0.9-3.9-1.7
		c-1.5-1.1-2.7-2.5-3.6-4.1c-0.6-1.3-1-2.6-1.2-4c0-0.2,0-0.3,0-0.5c0-0.3,0-0.6,0-1c0,0,0-0.1,0-0.1c0-0.3,0-0.6,0.1-0.9
		c0.2-1.1,0.4-2.1,0.9-3.1c1-2.1,2.4-3.7,4.4-4.9c1.5-0.9,3.1-1.4,4.8-1.6c0.2,0,0.3,0,0.5,0c0.3,0,0.6,0,1,0c0,0,0.1,0,0.1,0
		c0.5,0.1,1,0.1,1.5,0.2c1.4,0.2,2.7,0.8,3.9,1.5c1.3,0.8,2.5,1.9,3.3,3.2c0.6,0.9,1,1.8,1.4,2.8c0.3,0.8,0.4,1.6,0.5,2.5
		c0,0.2,0,0.4,0,0.5c0,0.3,0,0.6,0,0.9c0,0.3,0,0.5-0.1,0.8c-0.1,0.8-0.3,1.6-0.5,2.3c-0.4,1.3-1,2.4-1.9,3.4
		c-0.7,0.9-1.5,1.7-2.5,2.3c-0.9,0.6-1.9,1.1-2.9,1.4c-0.8,0.2-1.5,0.4-2.3,0.5C145.1,49.4,144.9,49.4,144.8,49.4z M152.9,38.1
		c0-4.7-3.9-8.6-8.7-8.5c-4.7,0-8.6,3.9-8.5,8.8c0.1,4.7,3.9,8.5,8.6,8.5C149.1,46.9,153,42.9,152.9,38.1z"/>
	<path class="st1" d="M150.2,39.5c-0.5,2.5-3,4.9-6.3,4.7c-3.2-0.2-5.7-2.8-5.7-6c0-3.2,2.5-5.8,5.7-6c3.4-0.2,5.8,2.2,6.3,4.7
		c-0.3,0-0.6,0-1,0c-0.5,0-1.1,0-1.6,0c-0.1,0-0.1,0-0.2-0.1c-0.5-1.1-1.4-1.8-2.6-2c-1.9-0.3-3.6,1-4,2.7c-0.3,1.7,0.7,3.4,2.4,4
		c1.6,0.5,3.2-0.1,4.1-1.6c0.1-0.1,0.1-0.2,0.2-0.4c0,0,0.1-0.1,0.1-0.1C148.5,39.5,149.3,39.5,150.2,39.5z"/>
</g>
</svg>
