<?xml version="1.0" encoding="utf-8"?>
<!-- Generator: Adobe Illustrator 24.3.0, SVG Export Plug-In . SVG Version: 6.00 Build 0)  -->
<svg version="1.1" id="Layer_1" xmlns="http://www.w3.org/2000/svg" xmlns:xlink="http://www.w3.org/1999/xlink" x="0px" y="0px"
	 viewBox="0 0 166.92 121.11" style="enable-background:new 0 0 166.92 121.11;" xml:space="preserve">
<style type="text/css">
	.st0{fill:#323F50;}
</style>
<g>
	<g>
		<path class="st0" d="M151.44,76.56C128.88,54.4,103.3,39.75,70.26,45.61c-21.19,3.76-38.31,15.14-52.3,31.21
			c-1.03,1.18-0.86,5.08,0.26,6.21c17.84,18.03,38.56,30.08,67.4,30.24c24.16-0.31,46.11-11.58,65.23-29.45
			C153.3,81.55,154.23,79.29,151.44,76.56z M92.59,59.26c2.74,1.02,5.18,2.59,7.2,4.59c0.71,0.7,1.36,1.46,1.97,2.26
			c2.59,3.44,4.13,7.75,4.16,12.51c0.01,1.26-0.09,2.5-0.32,3.71c-1.71,9.96-10.48,17.88-20.74,18.03
			C73.65,100.52,63.44,90.3,63.41,78.9c-0.05-11.84,9.3-20.98,21.46-21.01C87.6,57.88,90.21,58.36,92.59,59.26z M136.16,86.41
			c-4.2,3.18-8.55,6.16-13.12,8.75c-0.49,0.28-1,0.55-1.5,0.83c-2.51,1.35-5.09,2.59-7.73,3.66c-1.3,0.52-2.73,0.86-3.98,1.47
			c-1.19,0.58-2.61,0.75-3.91,1.04c-5.83,1.3-11.7,2.5-17.65,3.09c-2.75,0.28-5.5,0.42-8.26,0.4c-2.9-0.03-5.8-0.25-8.67-0.72
			c-2.85-0.48-5.59-1.3-8.36-2.14c-2.38-0.73-4.73-1.57-7.05-2.5c-2.3-0.93-4.59-1.95-6.81-3.07c-2.24-1.11-4.41-2.32-6.55-3.61
			c-2.13-1.3-4.21-2.68-6.22-4.15c-2.02-1.47-3.97-3.01-5.85-4.64c-0.47-0.4-5.42-4.92-5.42-5.1c7.3-7.38,15.44-14.01,24.62-18.84
			c9.18-4.83,19.45-7.82,29.83-7.74c-9.26,1.91-17.21,9.25-19.83,18.34c-2.62,9.09,0.16,19.52,6.98,26.09
			c1.62,1.55,3.44,2.88,5.4,3.94c2.1,1.23,4.55,2.12,6.92,2.63c2.74,0.57,5.56,0.83,8.36,0.58c0.55-0.05,1.11-0.11,1.66-0.19
			c0.83-0.14,1.64-0.31,2.44-0.54c1.38-0.39,2.68-0.97,3.97-1.59c1.21-0.57,2.41-1.13,3.54-1.87c1.15-0.73,2.22-1.56,3.23-2.48
			c1.7-1.54,3.2-3.31,4.44-5.25c1.23-1.93,2.2-4.01,2.87-6.2c2.11-6.95,1.11-14.74-2.53-21.02c-0.21-0.36-0.41-0.7-0.63-1.03
			c-1.25-1.94-2.73-3.7-4.41-5.26c-3.32-3.11-7.4-5.42-11.8-6.67c10.33,0.48,20.38,3.84,29.45,8.79
			c9.08,4.95,17.22,11.46,24.79,18.49C141.69,82.11,138.96,84.3,136.16,86.41z"/>
		<path class="st0" d="M13.58,33.98c0.19,0.02,0.46-0.05,0.56,0.06c6.1,6.08,12.23,12.14,18.17,18.37c0.31,0.32-0.7,2.71-1.59,3.15
			c-1.09,0.55-3.25,0.64-4-0.07c-5.52-5.23-11.03-10.52-16.07-16.21C8.43,36.77,10.26,33.95,13.58,33.98z"/>
		<path class="st0" d="M45.13,14.27c1.14,1.37,2.64,2.57,3.35,4.13c2.64,5.84,5.25,11.72,7.33,17.78c0.54,1.56-0.89,3.8-1.41,5.73
			c-1.79-1-4.49-1.57-5.22-3.09c-2.87-5.92-5.38-12.06-7.44-18.32c-0.58-1.75,0.85-4.16,1.36-6.27
			C43.77,14.25,44.45,14.26,45.13,14.27z"/>
		<path class="st0" d="M113.57,43.53c-0.97-2.79-2.58-4.96-2.08-6.39c2.38-6.74,5.2-13.35,8.24-19.83c0.55-1.17,2.88-1.5,4.38-2.22
			c0.74,1.58,2.48,3.51,2.06,4.67c-2.48,6.92-5.4,13.68-8.36,20.42C117.38,41.17,115.94,41.71,113.57,43.53z"/>
		<path class="st0" d="M138.53,56.73c-0.91-0.66-2.31-1.2-2.83-2.2c-0.5-0.96-0.62-2.89,0-3.55c5.2-5.54,10.52-10.98,16.07-16.17
			c0.85-0.79,3.62-0.73,4.49,0.05c0.9,0.82,1.34,3.72,0.65,4.46c-5.32,5.68-10.95,11.07-16.52,16.52
			C140,56.22,139.37,56.34,138.53,56.73z"/>
		<path class="st0" d="M87.47,22.89c0,3.25,0.38,6.56-0.16,9.71c-0.28,1.66-2.17,3.04-3.33,4.55c-1.21-1.4-3.39-2.76-3.46-4.2
			c-0.3-7.05-0.2-14.13,0.18-21.17c0.07-1.37,2.05-2.63,3.15-3.94c1.21,1.39,3.24,2.66,3.47,4.2c0.52,3.55,0.17,7.23,0.17,10.86
			C87.49,22.89,87.48,22.89,87.47,22.89z"/>
		<path class="st0" d="M102.24,77.74h-5.33c0.03,0.33,0.06,0.68,0.06,1.02c0.01,1.25-0.15,2.44-0.46,3.56
			c-1.39,5.18-5.9,8.9-11.51,9.02c-6.71,0.15-12.32-5.3-12.47-12.07c-0.13-6.32,4-11.5,9.73-12.74c0.8-0.17,1.63-0.26,2.49-0.28
			c0.7-0.01,1.4,0.06,2.07,0.19v-4.77c-0.75-0.09-1.5-0.14-2.27-0.14c-0.78,0.01-1.54,0.07-2.29,0.18
			c-8.21,1.19-14.81,8.38-14.99,16.83c-0.21,9.39,7.75,17.3,17.41,17.31c8.53,0.02,15.68-5.86,17.27-13.55
			c0.24-1.15,0.36-2.34,0.33-3.56C102.28,78.42,102.26,78.07,102.24,77.74z"/>
	</g>
	<path class="st0" d="M102.24,77.74H86.85V66.46c-0.01,0-0.01,0-0.02,0v-4.77c-0.75-0.09-1.5-0.14-2.27-0.14
		c-0.78,0.01-1.54,0.07-2.29,0.18v20.59h19.69c0.24-1.15,0.36-2.34,0.33-3.56C102.28,78.42,102.26,78.07,102.24,77.74z"/>
	<polyline class="st0" points="86.82,58.96 86.82,59.26 86.82,61.69 86.82,66.46 86.82,69.93 	"/>
	<polyline class="st0" points="102.57,77.74 102.24,77.74 101.76,77.74 101.5,77.74 	"/>
	<polyline class="st0" points="101.5,77.74 101.76,77.74 102.24,77.74 102.57,77.74 103.18,77.74 	"/>
</g>
</svg>
